<svg id="Layer_1" data-name="Layer 1" xmlns="http://www.w3.org/2000/svg" xmlns:xlink="http://www.w3.org/1999/xlink" viewBox="0 0 1863.61 402.44"><defs><style>.cls-1{fill:url(#linear-gradient);}.cls-2{fill:url(#linear-gradient-2);}.cls-3,.cls-4{isolation:isolate;}.cls-4{font-size:245.16px;fill:#fff;font-family:Rockwell-ExtraBold, Rockwell Extra Bold;font-weight:800;}</style><linearGradient id="linear-gradient" x1="571.12" y1="85.5" x2="311.15" y2="442.6" gradientTransform="matrix(1, 0, 0, -1, 0, 546.88)" gradientUnits="userSpaceOnUse"><stop offset="0" stop-color="#cc05c7"/><stop offset="1" stop-color="#019bfd"/></linearGradient><linearGradient id="linear-gradient-2" x1="582.99" y1="94.14" x2="323.01" y2="451.25" xlink:href="#linear-gradient"/></defs><title>logofinal-02</title><path class="cls-1" d="M538.25,371.45c-4.34-4.72-8.85-9.84-13.59-15.34l-35-39.42q-4.23-5.32-13.79-15.49a7,7,0,0,1,2.5-11.24h0a1.89,1.89,0,0,0,.49-.25l2.42-1.11c1.83-.9,3.84-2,6.09-3.1a4.53,4.53,0,0,1,1-.65c2.23-1.43,4.12-2.63,5.61-3.75,13.54-9.78,23.76-26.73,23.76-43.65v-7.27h10.84a6.19,6.19,0,0,0,6.2-6.2v-36a6.19,6.19,0,0,0-6.2-6.2H517.73v-8.54a47,47,0,0,0-46.87-43.7H425.75l36.57-75.13a14.32,14.32,0,1,0-7.3-3.57l-38.27,78.7H389.68l-38.27-78.7a14.21,14.21,0,1,0-7.27,3.57l36.54,75.13H336.81A47,47,0,0,0,290,173.14v8.54h-9.82a6.21,6.21,0,0,0-6.2,6.2V224a6.2,6.2,0,0,0,6.2,6.2h9.44V373.92h38.95A16.19,16.19,0,0,0,338,371a16.6,16.6,0,0,0,6.86-13.45V338.29a39.74,39.74,0,0,1,39.42-39.76h.84a39.58,39.58,0,0,1,30.68,14.09c15,17.75,39.36,46.57,44.74,53a28.16,28.16,0,0,0,5.85,5.84c.5.31,1,.65,1.37.87s.88.53,1.34.77a21.51,21.51,0,0,0,7.26,1h64.29A15.94,15.94,0,0,0,538.25,371.45ZM336.81,274.68a37.19,37.19,0,0,1-37.19-37.18V176.45A35.69,35.69,0,0,1,300,171c.12-.84.28-1.65.46-2.45a12.91,12.91,0,0,1,.31-1.37c.13-.59.31-1.16.5-1.75a13.06,13.06,0,0,1,.59-1.73c.21-.62.49-1.24.72-1.86a14.33,14.33,0,0,1,.69-1.55,15,15,0,0,1,.8-1.55,36.87,36.87,0,0,1,2.91-4.51,28.38,28.38,0,0,1,2-2.42l.34-.37a14.87,14.87,0,0,1,1.24-1.27c.4-.43.83-.84,1.27-1.24.59-.55,1.2-1.06,1.84-1.55.41-.34.81-.65,1.24-1a26.4,26.4,0,0,1,2.82-1.86c.75-.46,1.55-.9,2.33-1.3a33,33,0,0,1,6.8-2.64l1.36-.37h.22c.46-.09,1-.18,1.55-.31l1.19-.18c.53-.1,1.06-.16,1.55-.22s1.46-.12,2.17-.15,1.3,0,1.92,0h134A37.19,37.19,0,0,1,508,176.55v61a37.19,37.19,0,0,1-37.19,37.19Z"/><path class="cls-2" d="M470.83,156.46h-134A20,20,0,0,0,318,169.8a19.4,19.4,0,0,0-1.15,6.66v60.35a20,20,0,0,0,20,20h30.59a18.11,18.11,0,0,0,15.79-9.59,11.69,11.69,0,0,1,10.26-6.09h21.57a11.63,11.63,0,0,1,10.22,6.09,18.21,18.21,0,0,0,15.81,9.59h29.73a20,20,0,0,0,20-20V176.46A20,20,0,0,0,470.83,156.46Zm-10.09,40.86a4,4,0,0,0-1-1.44,4.4,4.4,0,0,0-3.21-1.34,4.56,4.56,0,0,0-4.57,4.54h-9.82a14.39,14.39,0,0,1,28.77,0h-9.81A3.82,3.82,0,0,0,460.74,197.32Zm-40.94,9.56a15.57,15.57,0,0,1-31.13,0m-33.17-12.4a4.77,4.77,0,0,0-.92.08,4.41,4.41,0,0,0-1.62.7,4.45,4.45,0,0,0-1.66,2,4.41,4.41,0,0,0-.37,1.76h-9.84a14.38,14.38,0,0,1,28.76,0H360a4.56,4.56,0,0,0-4.52-4.48Z"/><g class="cls-3"><text class="cls-4" transform="translate(565.4 343.34)"><tspan xml:space="preserve"> Ranga</tspan></text></g></svg>