<svg xmlns="http://www.w3.org/2000/svg" xmlns:xlink="http://www.w3.org/1999/xlink" viewBox="0 0 1863.61 402.44"><defs><style>.cls-1,.cls-2{isolation:isolate;}.cls-2{font-size:245.16px;fill:#fff;font-family:Rockwell-Bold, Rockwell;font-weight:700;}.cls-3{letter-spacing:-0.02em;}.cls-4{letter-spacing:-0.02em;}.cls-5{letter-spacing:0em;}.cls-6{fill:url(#linear-gradient);}.cls-7,.cls-9{mix-blend-mode:overlay;}.cls-7{fill:url(#linear-gradient-2);}.cls-8{fill:url(#linear-gradient-3);}.cls-9{fill:url(#linear-gradient-4);}.cls-10{fill:url(#linear-gradient-5);}.cls-11{fill:url(#linear-gradient-6);}.cls-12{fill:url(#linear-gradient-7);}</style><linearGradient id="linear-gradient" x1="308.5" y1="302.3" x2="327.38" y2="146.68" gradientUnits="userSpaceOnUse"><stop offset="0" stop-color="#62e9ff"/><stop offset="0.5" stop-color="#0eafef"/><stop offset="1" stop-color="#005d6e"/></linearGradient><linearGradient id="linear-gradient-2" x1="329.46" y1="144.56" x2="332.68" y2="181.87" gradientUnits="userSpaceOnUse"><stop offset="0"/><stop offset="1" stop-opacity="0"/></linearGradient><linearGradient id="linear-gradient-3" x1="519.12" y1="181.58" x2="359.33" y2="205.86" gradientUnits="userSpaceOnUse"><stop offset="0.06" stop-color="#cf1cff"/><stop offset="1" stop-color="#2f309f"/></linearGradient><linearGradient id="linear-gradient-4" x1="350.52" y1="214.59" x2="378.7" y2="210.02" xlink:href="#linear-gradient-2"/><linearGradient id="linear-gradient-5" x1="460.43" y1="310.31" x2="309.04" y2="188.98" xlink:href="#linear-gradient-3"/><linearGradient id="linear-gradient-6" x1="273.75" y1="147.28" x2="520.52" y2="147.28" gradientUnits="userSpaceOnUse"><stop offset="0" stop-color="#5efcfc"/><stop offset="1" stop-color="#0265ff"/></linearGradient><linearGradient id="linear-gradient-7" x1="271.92" y1="146.63" x2="522.4" y2="146.63" xlink:href="#linear-gradient-6"/></defs><g class="cls-1"><g id="Layer_1" data-name="Layer 1"><g class="cls-1"><text class="cls-2" transform="translate(565.4 343.34)"><tspan xml:space="preserve"> Ra</tspan><tspan class="cls-3" x="413.59" y="0">n</tspan><tspan class="cls-4" x="577.59" y="0">g</tspan><tspan class="cls-5" x="737.4" y="0">a</tspan></text></g><path class="cls-6" d="M301.11,127.09c11.41,3,18.3,11.12,18.07,20.29s-31.4,165.25-25.6,168.82c5.23,3.22,43.39,2.36,48.67-.23s25.82-153,25.81-172.1a45.1,45.1,0,0,0-2.18-15.71q-3-9.1-12-10.34c-6.66-.85-47.05-2.94-57,2a77.29,77.29,0,0,0-7.55,4.15,1.28,1.28,0,0,0,.89,2.33A29.3,29.3,0,0,1,301.11,127.09Z"/><path class="cls-7" d="M301.11,127.09c11.41,3,18.3,11.12,18.07,20.29-.08,2.86-7.18,42.31-7.18,42.31l52.56-9.43s3.5-31.44,3.5-36.39a45.1,45.1,0,0,0-2.18-15.71q-3-9.1-12-10.34c-6.66-.85-47.05-2.94-57,2a77.29,77.29,0,0,0-7.55,4.15,1.28,1.28,0,0,0,.89,2.33A29.3,29.3,0,0,1,301.11,127.09Z"/><path class="cls-8" d="M467.83,167.31c-6.86,2.91-97.93,26.12-98.1,26.07-14.54,3.77-12.08,37.56,5.83,35.58,2.59-.12,109.08-14.84,137.33-27.35,2.69-1.25,5.45-2.78,6-4l.57-1.35c.34-.79.59-1.4.66-1.64a9.17,9.17,0,0,0,.4-2.36,13.67,13.67,0,0,0-.15-2.5h0a28.72,28.72,0,0,0-2-7A142.28,142.28,0,0,0,504,158Z"/><path class="cls-9" d="M386.31,221c-12.47-12.46-10.92-23.41-8.2-29.68-5.18,1.32-8.35,2.11-8.38,2.1-14.54,3.77-12.08,37.56,5.83,35.58.61,0,6.94-.86,16.59-2.27C390.2,224.78,388.27,222.92,386.31,221Z"/><path class="cls-10" d="M375,228.48a705.18,705.18,0,0,0,84.9,72.74c2.13,1.43,4.34,3,6.65,4.75s4.78,3.5,7.46,5.23,3.74,3.46,3.21,5.13c-3.54,10.3-22.71,7.91-29,6.34h0l-4-1.26c-21.28-7.8-101.14-61.52-101.89-62.07-13.13-9-55.81-38.5,27.3-65.92.17-.06.34.12.23.26C367.63,196.44,357.54,211,375,228.48Z"/><path class="cls-11" d="M518.32,182.73c-4-8.74-8.77-37.79-14.37-45.51a69.1,69.1,0,0,0-37.27-26.69q-6.48-2-12.9-3.59a268.58,268.58,0,0,0-53.35-7.6,475.32,475.32,0,0,0-111.31,5.76q-14.34,2.85-15.19,5.55a5.13,5.13,0,0,0,.07,2.92c2.59,11.89,9.78,44,21.57,54.67l2.72,2.37a3.61,3.61,0,0,0,2.64.9c8.25-.57,44.76-6,46.35-6.16,11.13-2.28,96.38-6.1,123.87,0s50.55,21,48.3,30.87c.34-.79.59-1.4.66-1.64Q521.47,190.3,518.32,182.73Z"/><path class="cls-12" d="M518.32,182.73a92.54,92.54,0,0,1-3.78-12.09l-3.16-12.28c-1.08-4.09-2.18-8.17-3.52-12.18a54,54,0,0,0-2.3-5.89,25.34,25.34,0,0,0-3.41-5.3A68.18,68.18,0,0,0,472,112.76c-2-.73-4-1.4-6-2l-6.11-1.64-6.11-1.64c-2.05-.49-4.11-1-6.17-1.4q-6.19-1.32-12.43-2.34-12.48-2-25.11-2.9c-2.1-.15-4.21-.26-6.31-.36s-4.22-.17-6.33-.28c-4.22-.23-8.44-.37-12.65-.48q-12.65-.31-25.29.06a505,505,0,0,0-50.37,4.09c-4.18.56-8.34,1.17-12.51,1.8l-6.21,1c-2.06.33-4.07.8-6.1,1.28a52.36,52.36,0,0,0-5.85,1.74,11.46,11.46,0,0,0-2.43,1.19c-.32.19-.47.47-.38.29a2.24,2.24,0,0,0-.09.85,3.64,3.64,0,0,0,.07.54l.06.28.09.39.35,1.57.7,3.1q.72,3.07,1.47,6.13a197.63,197.63,0,0,0,7.35,24c3.13,7.67,6.57,15.41,12.92,20.51l.59.52a3.66,3.66,0,0,0,.44.37,1.93,1.93,0,0,0,.77.31,1.85,1.85,0,0,0,.41,0l.77-.06,1.55-.14c2.08-.2,4.17-.44,6.26-.69,4.19-.5,8.37-1,12.56-1.59L347.12,164H347l3-.42,2.9-.28c1.94-.2,3.86-.3,5.79-.45,3.85-.25,7.7-.47,11.55-.63,7.7-.37,15.4-.56,23.11-.73,15.4-.27,30.81-.25,46.21.39,1.93.06,3.85.18,5.77.3s3.85.21,5.77.35c3.84.35,7.69.63,11.51,1.18l2.87.36,2.84.53,2.85.52,2.81.68q5.61,1.42,11.07,3.34A105.74,105.74,0,0,1,505.88,179a50.42,50.42,0,0,1,9.09,7.1,20.22,20.22,0,0,1,3.47,4.6,10.76,10.76,0,0,1,1,2.7,7.54,7.54,0,0,1,0,2.88l-.05,0,.66-1.62a10,10,0,0,0,.35-1.71,13.6,13.6,0,0,0-.12-3.49A30.21,30.21,0,0,0,518.32,182.73Zm0,0a30.67,30.67,0,0,1,2,6.7,14.07,14.07,0,0,1,.13,3.49,10.09,10.09,0,0,1-.35,1.72l-.65,1.63-.05,0a7.39,7.39,0,0,0,0-2.85,10.7,10.7,0,0,0-1-2.67,20.39,20.39,0,0,0-3.48-4.57,50.06,50.06,0,0,0-9.09-7,86.89,86.89,0,0,0-10.18-5.4,114.87,114.87,0,0,0-10.73-4.23c-3.63-1.23-7.33-2.3-11.06-3.21l-2.81-.64-2.83-.49-2.84-.49-2.86-.32c-3.81-.48-7.65-.68-11.48-1-1.92-.12-3.84-.17-5.76-.26s-3.84-.17-5.76-.19c-15.38-.35-30.76-.09-46.13.46-7.68.31-15.37.64-23,1.15-3.84.23-7.67.52-11.49.84-1.91.18-3.83.31-5.71.55l-2.84.32-2.75.44-.11,0h0c-8.29,1.25-16.7,2.57-25.06,3.76-4.19.6-8.38,1.19-12.58,1.74q-3.15.4-6.33.77c-.53.06-1.07.1-1.61.15l-.82.08a5,5,0,0,1-1.16-.05,5.23,5.23,0,0,1-2.16-.83,5.68,5.68,0,0,1-.79-.63l-.61-.52-1.2-1a12.45,12.45,0,0,1-1.21-1.12l-1.19-1.23-.59-.61c-.19-.21-.35-.44-.52-.66-.66-.88-1.4-1.74-2-2.66l-1.76-2.78a91.59,91.59,0,0,1-5.54-11.69A200.59,200.59,0,0,1,274.73,125c-.51-2.06-1-4.13-1.46-6.2l-.69-3.09-.33-1.52-.09-.39-.11-.49a8.3,8.3,0,0,1-.12-1,5.7,5.7,0,0,1,.31-2.28,4.35,4.35,0,0,1,1.71-2,14.56,14.56,0,0,1,3.24-1.61,55.27,55.27,0,0,1,6.3-1.85c2.09-.49,4.2-1,6.31-1.31l6.31-1,6.3-.91,6.31-.81A460.59,460.59,0,0,1,359.47,97q12.72-.17,25.43.39c4.23.19,8.46.41,12.68.71,2.11.16,4.22.28,6.33.4s4.23.29,6.34.48c8.45.73,16.87,1.86,25.21,3.38q6.26,1.14,12.44,2.58c2.07.48,4.12,1,6.17,1.51l6.11,1.76,6.1,1.76c2,.62,4,1.34,6,2.11a72.77,72.77,0,0,1,11.37,5.7,68.91,68.91,0,0,1,18.69,17,26.21,26.21,0,0,1,3.37,5.37,59.91,59.91,0,0,1,2.28,5.93c1.32,4,2.41,8.1,3.47,12.2l3.11,12.29A92.51,92.51,0,0,0,518.32,182.73Z"/></g></g></svg>