<?xml version="1.0" encoding="utf-8"?>
<!-- Generator: Adobe Illustrator 26.2.1, SVG Export Plug-In . SVG Version: 6.00 Build 0)  -->
<svg version="1.1" id="Layer_1" xmlns="http://www.w3.org/2000/svg" xmlns:xlink="http://www.w3.org/1999/xlink" x="0px" y="0px"
	 viewBox="0 0 2795.1 402.4" style="enable-background:new 0 0 2795.1 402.4;" xml:space="preserve">
<style type="text/css">
	.st0{fill:#FFFFFF;}
	.st1{font-family:'Rockwell-Bold';}
	.st2{font-size:245.16px;}
	.st3{fill:url(#SVGID_1_);}
	.st4{fill:url(#SVGID_00000093168696766888976130000007139780533763090355_);}
	.st5{fill:url(#SVGID_00000122723058856475385350000018336162472653690541_);}
	.st6{fill:#221347;}
	.st7{fill:url(#SVGID_00000100355801963530955570000004669349665831985343_);}
</style>
<g>
	<text transform="matrix(1 0 0 1 565.4 343.34)" class="st0 st1 st2">   The Bee Online</text>
</g>
<g>
	
		<linearGradient id="SVGID_1_" gradientUnits="userSpaceOnUse" x1="386.1" y1="110" x2="431.9" y2="110" gradientTransform="matrix(1 0 0 -1 0 402)">
		<stop  offset="0" style="stop-color:#FE8338"/>
		<stop  offset="1" style="stop-color:#FFFF44"/>
	</linearGradient>
	<polygon class="st3" points="400.6,237.8 431.9,292 400.6,346.2 386.1,346.2 417.4,292 386.1,237.8 	"/>
	
		<linearGradient id="SVGID_00000150093308366248710570000018209453731181072817_" gradientUnits="userSpaceOnUse" x1="238.6" y1="110" x2="284.3271" y2="110" gradientTransform="matrix(1 0 0 -1 0 402)">
		<stop  offset="0" style="stop-color:#FE8338"/>
		<stop  offset="1" style="stop-color:#FFFF44"/>
	</linearGradient>
	<polygon style="fill:url(#SVGID_00000150093308366248710570000018209453731181072817_);" points="253.1,292 284.4,346.2 
		269.9,346.2 238.6,292 269.9,237.8 284.4,237.8 	"/>
	
		<linearGradient id="SVGID_00000016067122030632942780000012732979930060476585_" gradientUnits="userSpaceOnUse" x1="263.1" y1="110" x2="407.4" y2="110" gradientTransform="matrix(1 0 0 -1 0 402)">
		<stop  offset="0" style="stop-color:#FE8338"/>
		<stop  offset="1" style="stop-color:#FFFF44"/>
	</linearGradient>
	<polygon style="fill:url(#SVGID_00000016067122030632942780000012732979930060476585_);" points="371.3,229.5 299.2,229.5 
		263.1,292 299.2,354.5 371.3,354.5 407.4,292 	"/>
	<polygon class="st6" points="324,329.4 313.5,329.4 346.5,254.6 357,254.6 	"/>
</g>
<g>
	
		<linearGradient id="SVGID_00000114062075591419830110000008570286412069158584_" gradientUnits="userSpaceOnUse" x1="267.089" y1="267.6309" x2="417.6889" y2="267.6309" gradientTransform="matrix(1 0 0 -1 0 402)">
		<stop  offset="0" style="stop-color:#FE8338"/>
		<stop  offset="1" style="stop-color:#FFFF44"/>
	</linearGradient>
	<path style="fill:url(#SVGID_00000114062075591419830110000008570286412069158584_);" d="M411.2,179.6c-5-4.9-9.3-10.5-13.6-16.1
		c-1.3-1.8-2.7-3.7-4.1-5.5c-2-2.6-4-5.2-6.2-7.7c-4.7-5.4-9.8-10.3-15.9-13.7c-1.5-0.9-3.2-1.7-4.9-2.4c-3.3-1.4-6.8-2.3-10.3-2.7
		c-0.6,0-1.1-0.1-1.7-0.1c6.6-3.6,12.8-8.1,18.2-13.4c5.4-5.3,10.1-11.2,13.7-17.9c3.8-6.8,6.5-14.3,6.8-22
		c0.2-7.8-2.3-15.8-7.8-21.2c-5.6-5.4-14.4-7.7-21.5-4.5c-4.5,2-7.8,5.8-10.1,10.2c-2.6-4.2-6.4-7.5-10.9-9.2
		c-6.2-2.4-14-1.1-18.5,3.8c-4.4,4.8-5.1,12-4.2,18.4c1,6.5,3.4,12.6,4.3,19.1c1.2,8,0,16.4-3.1,23.9c-1.7-0.1-3.5-0.1-5.2,0.1
		c-0.8-5-4.2-9-8.7-11.5c-2.1-1.1-4.4-2.1-6.8-2.7c0.1-1,0.1-2,0.1-3.1c0-4.4-0.6-9-2-13.3c-1.3-3.9-3.2-7.8-5.7-11.1
		c-1.3-1.7-2.9-3.4-4.6-4.9c0.7-0.9,1.1-2,1.1-3.2c0-3-2.4-5.4-5.4-5.4s-5.4,2.4-5.4,5.4s2.4,5.4,5.4,5.4c0.9,0,1.8-0.2,2.5-0.7
		c1.4,1.5,2.8,2.9,4,4.6c2.3,3.3,4.2,7,5.4,10.8c1.3,4,2,8.1,2.2,12.3c0,0.9,0.1,1.8,0.1,2.8c-1.3-0.2-2.6-0.3-3.9-0.2
		c-0.7-3.6-2.2-7.1-4.1-10.4c-3-5-7.3-9.3-12.7-11.5c0-0.2,0-0.4,0-0.5c0-3-2.4-5.4-5.4-5.4c-2.9,0-5.4,2.4-5.4,5.4s2.4,5.4,5.4,5.4
		c1.9,0,3.5-1,4.5-2.4c4.5,2.5,8.3,5.9,11.2,10.3c1.7,2.6,3.1,5.4,4.1,8.4c0.1,0.3,0.2,0.6,0.3,1c-0.2,0-0.4,0-0.5,0.1
		c-7.9,1.5-14.2,7.9-17.7,15.3c-3.5,7.3-4.5,15.4-5.5,23.5c0,1.1,10.2,2.5,11.2,2.6c4.2,0.4,8.4,0,12.5-1c1.4-0.4,2.8-0.7,4.1-1.2
		c0.3,2.8,1.1,5.6,2.4,8.1c-3.4,4.8-6.9,9.5-10.3,14.3c4.5,7.8,5.7,17.4,3.2,26c6.1-7.8,7.1-19.2,2.4-27.9c2.6-2.7,5.2-5.4,7.8-8.1
		c0.2,0.2,0.5,0.5,0.7,0.8c-1.4,6.1-2.8,12.1-4.2,18.2c7.1,5.4,11.9,13.8,13,22.7c2.6-9.5-0.9-20.4-8.6-26.6
		c1.4-3.6,2.8-7.2,4.3-10.9c2.8,1.7,6.1,2.8,9.4,3.2c2.4,0.3,4.9,0.2,7.3-0.2c0.1,0.7,0.4,1.5,0.6,2.2c-3.5,8.3-8.4,20.6-10.9,26.4
		c6.1,6.6,9.3,15.8,8.8,24.7c4.3-8.9,2.7-20.3-3.7-27.7c2.2-3.7,4.5-7.3,6.7-11c0,6.9-0.1,13.8-0.2,20.8
		c8.2,3.7,14.7,10.9,17.7,19.3c0.5-9.9-5.4-19.8-14.2-24.1c0.8-5.2,1.6-10.4,2.4-15.6c2.4,3.2,5.3,6,8.3,8.6
		c0.2,0.1,0.5,0.4,0.7,0.5c4.9,3.8,10.3,6.8,16.1,8.9c5.7,2.1,11.7,3.3,17.8,3.5c6.7,0.4,13.4-0.5,19.7-2.4c3.2-1,6.3-2.3,9.3-3.7
		c5-2.3,9.8-5.1,14.5-7.8C415.3,183.5,413.2,181.6,411.2,179.6z M363.1,118.4c-4.1,3.2-8.7,5.9-13.7,7.7c-3,1.2-6.1,2.1-9.3,2.8
		c-0.6,0.1-1.3,0.2-1.9,0.4c-0.5,0.1-0.9,0.1-1.3,0.2c0.2-0.2,0.5-0.4,0.7-0.6c0.6-0.5,1.1-1,1.6-1.5l0,0c1.7-1.5,3.4-3.1,5-4.8l0,0
		c7-2.7,13.8-6,20.5-9.3c2.6-1.3,5.2-2.7,7.8-3.9C369.7,112.6,366.6,115.7,363.1,118.4z M376.2,104.2c-1,0.5-1.9,0.9-2.9,1.3
		c-3.6,1.7-7.1,3.6-10.6,5.4c-4.8,2.5-9.7,4.8-14.4,7.2c1-1,2-2.1,2.9-3.1c3.3-3.8,6.1-7.9,9.1-12c3.8-5.4,8.7-8.4,13.8-12.4
		c3.5-2.7,7-5.3,10.6-7.8C383.3,90.5,380.4,97.7,376.2,104.2z M384.1,67.1c1.4,3.9,1.5,8.2,1,12.4c-4.5,2.6-8.6,6.1-12.8,9.3
		c-2.2,1.7-4.6,3.3-6.9,5c2.2-4.4,4-8.9,5.5-13.7c2.2-7.1,4.8-14.5,4.9-22C379.7,59.6,382.7,63.1,384.1,67.1z M360.5,62.8
		c3.2-3.7,8.2-6,12.9-5.3c-0.7,6.7-2.8,13.4-4.9,19.8c-1.3,3.9-2.7,7.8-4.4,11.7c0-2.7-0.3-5.4-0.9-8.1c-1-5.3-2.1-10.9-4.6-15.7
		C359.2,64.4,359.8,63.6,360.5,62.8z M345.4,61.9c2.4,2.6,4,5.9,5,9.3c-2.7,3.6-4.7,7.8-6.9,11.7c-1.2,2.1-2.5,4.2-3.7,6.3
		c0.2-4.2,0.1-8.4-0.4-12.7c-0.7-6.3-1.3-13.1-3.8-19C339.3,57.4,342.9,59.2,345.4,61.9z M349.5,76.8c-0.9,5.2-1.4,10.5-2.8,15.7
		c-1.9,7.2-5.5,13.9-10.3,19.7c-0.5,0.7-1.2,1.3-1.8,2c0.4-1.1,0.8-2.1,1.2-3.2c1.3-4.1,2.1-8.4,3.1-12.6c1.2-5.5,3.9-9.6,6.6-14.5
		C346.8,81.5,348.1,79.1,349.5,76.8z M325.3,66.6c1.3-4,4.4-7.5,8.4-8.6c1.8,5.6,2.3,11.5,2.9,17.3c0.4,3.6,0.6,7.2,0.6,10.8
		c-1-2.1-2.1-4.2-3.4-6.1c-2.6-3.9-5.4-7.8-9-10.8C324.8,68.3,325,67.4,325.3,66.6z M324.4,71.3c2.6,2.9,4.9,6.2,7,9.5
		c2.4,3.7,4.4,7.7,5.3,12c-1,8.9-3.6,17.6-7,26c-0.4,0.4-0.9,0.7-1.3,1.1c-0.7-0.3-1.5-0.5-2.3-0.7l0,0c3.2-8.2,4.3-17.1,2.7-25.8
		c-0.9-4.5-2.5-8.8-3.5-13.3C324.6,77.3,324.3,74.3,324.4,71.3z M330.6,130.3c-0.8,0.1-1.6,0.1-2.3,0.2H328c-0.8,0-2.1-0.2-3.3-0.2
		c0-0.1,0.1-0.2,0.1-0.3l0,0c-0.2,0.1-0.4,0.2-0.5,0.3c-0.4,0-0.7,0-1,0s-0.5,0.1-0.7,0.2c1-0.5,1.9-1.1,2.8-1.7
		c1.7-1.1,3.3-2.2,4.9-3.4c1.2-1,2.4-2,3.6-3c6.8-6.1,12.4-13.6,15.7-22.1c0.8-2,1.5-4.1,2-6.2c0,0,0,0,0-0.1
		c0.1-0.1,0.1-0.1,0.2-0.2c0.2-0.8,0.3-1.7,0.4-2.5v-0.1c0.9-4.6,1.2-9.3,2-13.8c0.6-3,1.4-6,2.6-8.7c0.1-0.4,0.3-0.7,0.5-1.1
		c1.5,4.3,2.4,8.8,3.1,13.3c0.8,5.1,1.2,10.2,0.1,15.3c-2.1,3.7-4.5,7.2-7.1,10.6l0,0c-5,6.5-10.7,12.4-16.7,18
		c0,0.1-0.1,0.1-0.1,0.1C334.7,126.7,332.6,128.5,330.6,130.3z M345.7,182c-0.3-0.2-0.6-0.5-0.9-0.7c-4-3.3-7.6-7.3-9.8-12
		c8-8.8,14.3-19.1,18.6-30.2c4.2,0,8.3,0.9,11.9,2.3c1.4,0.6,2.8,1.3,4.1,2.1C365.1,158.1,356.8,171.6,345.7,182z M382.4,190.3
		c-6.5,1.3-13.4,1.2-19.8-0.4c9.3-9.2,16.9-20.2,22-32.3c0.5,0.6,1.1,1.3,1.6,2c2.8,3.7,5.5,7.5,8.5,11.1
		C391.5,177.8,387.3,184.4,382.4,190.3z"/>
</g>
</svg>
