<svg id="Layer_1" data-name="Layer 1" xmlns="http://www.w3.org/2000/svg" viewBox="0 0 193.22 193.22"><defs><style>.cls-1,.cls-2{fill:#9f00cd;}.cls-2{opacity:0.5;}.cls-3{fill:#c36358;}.cls-4,.cls-9{fill:#1a2e35;}.cls-5{fill:#ffc800;}.cls-6{fill:#fff;}.cls-7{opacity:0.1;}.cls-8{fill:#2b454e;}.cls-9{opacity:0.2;}</style></defs><path class="cls-1" d="M119.26,173.42a70.19,70.19,0,1,1,70.19-70.19A70.27,70.27,0,0,1,119.26,173.42Zm0-136.94A66.75,66.75,0,1,0,186,103.23,66.83,66.83,0,0,0,119.26,36.48Z"/><circle class="cls-1" cx="119.26" cy="103.23" r="60.62" transform="translate(-38.07 114.57) rotate(-45)"/><circle class="cls-2" cx="119.26" cy="103.23" r="60.62" transform="translate(-38.07 114.57) rotate(-45)"/><path class="cls-3" d="M113.06,83.34c-2.92,8.46-15,50.13-23,52.46C77,139.61,67,138.38,56.6,138.64c-5.89.15-15-28.16-9.7-28.31,8.49-.24,27.78,1.25,30.86,1.11s14.56-23.87,25.39-34.18C112.9,68,115.12,77.38,113.06,83.34Z"/><path class="cls-3" d="M60,137.88a82.58,82.58,0,0,1-11.4,3.52c-3.08.56-12,1.93-12.91-1.39-.65-2.27,4.48-3.69,8.08-4.77,1.9-.57,4.35-2.25,3.93-3.48-.73-2.14-5.63-.57-8.9.91-6.32,2.85-14.9,8.27-18.24,4.87-1.25-1.29.56-3.2,3.11-5-4,2-8.29,3.53-9.75,2.16a2,2,0,0,1-.16-2.76,2.66,2.66,0,0,1-2.88-.76c-1.1-1.42-.31-3.26,1.25-5.08a1.48,1.48,0,0,1-1-.85c-2.2-4.25,12-14.34,16.68-14.95a115.22,115.22,0,0,1,27.59.24C60.13,115.24,60,137.88,60,137.88Z"/><path class="cls-4" d="M41.67,123.62a22.7,22.7,0,0,0-9.22,2.51c-3.61,1.87-6.11,4.25-9.21,6.58-.08.06,0,.19.09.13,1.48-1.11,7.55-5.22,9.1-6.14a21.56,21.56,0,0,1,9.25-3S41.71,123.62,41.67,123.62Z"/><path class="cls-4" d="M39.77,117.72a54.49,54.49,0,0,0-10.69,2.52c-3.74,1.44-6.82,4.11-9.85,6.66-1.81,1.54-3.6,3.11-5.34,4.73-.08.07,0,.2.09.13q4.61-4,9.46-7.66a28.66,28.66,0,0,1,10-5c2.08-.55,4.19-.95,6.31-1.34A0,0,0,0,0,39.77,117.72Z"/><path class="cls-4" d="M36.55,112.4c-3.47.35-6.5.64-9.7,2.15a48.93,48.93,0,0,0-10,7C15.21,123,13.61,124.45,12,126c-.06.06.05.18.11.12a113.18,113.18,0,0,1,11.42-9.2,22.52,22.52,0,0,1,6.19-3.17,40.11,40.11,0,0,1,6.81-1.29S36.56,112.4,36.55,112.4Z"/><path class="cls-5" d="M78.85,106l21.08,25.53S112.13,97.86,114.6,83c2.58-15.53-2.57-20.16-15.72-4A327.66,327.66,0,0,0,78.85,106Z"/><path class="cls-6" d="M98.78,81.63a1.81,1.81,0,0,1-.72-.25,1.45,1.45,0,0,1-.55-.72l-.47.6a1.63,1.63,0,0,0,.77.61,1.73,1.73,0,0,0,1,.11c.3-.07.58-.11.86-.18A6,6,0,0,0,98.78,81.63Zm-5,40a1.8,1.8,0,0,1-.72-.23,1.38,1.38,0,0,1-.62-1.17,1.8,1.8,0,0,0-1.15-1.64,1.6,1.6,0,0,0-1-.06c-.3.06-.59.1-.89.17a7,7,0,0,0,.89.18,1.61,1.61,0,0,1,.73.21,1.37,1.37,0,0,1,.65,1.14,1.83,1.83,0,0,0,1.1,1.67,1.8,1.8,0,0,0,1,.08,6.83,6.83,0,0,0,.88-.17C94.4,121.76,94.12,121.73,93.82,121.66ZM113.61,78.4a1.74,1.74,0,0,0-.11,1c.07.29.11.57.18.87.09-.3.12-.58.18-.87a1.7,1.7,0,0,1,.24-.72,1.38,1.38,0,0,1,1.08-.63c0-.25,0-.49,0-.72A1.81,1.81,0,0,0,113.61,78.4ZM95.74,99.75a6.09,6.09,0,0,0-.18-.87c-.07.28-.1.57-.18.87a1.65,1.65,0,0,1-.21.73,1.31,1.31,0,0,1-1.13.65,1.82,1.82,0,0,0-1.67,1.1,1.78,1.78,0,0,0-.09,1,7,7,0,0,0,.18.89c.08-.3.12-.59.17-.89a1.67,1.67,0,0,1,.25-.71,1.35,1.35,0,0,1,1.18-.62,1.84,1.84,0,0,0,1.63-1.15A1.87,1.87,0,0,0,95.74,99.75Zm8.71-10a1.54,1.54,0,0,1-.68.33,1.28,1.28,0,0,1-1.25-.38,1.8,1.8,0,0,0-2-.34,1.7,1.7,0,0,0-.73.64,7.52,7.52,0,0,0-.5.75l.75-.5a1.41,1.41,0,0,1,.67-.35,1.34,1.34,0,0,1,1.28.31,1.75,1.75,0,0,0,2.7-.21c.16-.25.33-.48.48-.75C104.93,89.41,104.7,89.59,104.45,89.75Zm1.6,20.49a1.8,1.8,0,0,0-2-.33,1.68,1.68,0,0,0-.73.63c-.15.25-.35.49-.5.75.27-.16.5-.34.75-.5a1.5,1.5,0,0,1,.67-.35,1.32,1.32,0,0,1,1.28.32,1.78,1.78,0,0,0,1.28.54l.21-.64A1.29,1.29,0,0,1,106.05,110.24Zm-24.19-2.39a1.34,1.34,0,0,1-.67.34,1.51,1.51,0,0,1-.52,0l.49.59.2-.07a1.82,1.82,0,0,0,.77-.62c.16-.25.33-.48.48-.75Z"/><path class="cls-4" d="M100.56,123.93A24.54,24.54,0,0,0,99,122l-1.6-2c-1.09-1.36-2.2-2.7-3.32-4-2.23-2.67-4.45-5.34-6.72-8-.63-.72-1.25-1.44-1.9-2.15s-1.41-1.44-2.08-2.18c0,0-.11,0-.07.07.53.67,1,1.4,1.54,2.08s1.09,1.39,1.65,2.07c1.11,1.35,2.22,2.68,3.35,4,2.21,2.61,4.42,5.24,6.69,7.8.63.72,1.27,1.43,1.91,2.14s1.3,1.55,2,2.24C100.52,124,100.59,124,100.56,123.93Z"/><path class="cls-7" d="M114.6,83c-2.48,14.9-14.67,48.56-14.67,48.56L86.67,115.45l25-46.58C115.08,69.08,116,74.35,114.6,83Z"/><path class="cls-5" d="M156,151.46a60.61,60.61,0,0,1-71.08,1.71C89.3,130.43,100.12,81.59,106,74c1.6-2.09,6.9-2.68,11.4-2.12a21,21,0,0,1,3.48.71l.12,0a8.42,8.42,0,0,1,2.55,1.25C132.88,81.34,148.8,128.09,156,151.46Z"/><path class="cls-6" d="M151,151.46a1.7,1.7,0,0,1-.67.34,1.4,1.4,0,0,1-1.28-.39,1.79,1.79,0,0,0-2-.33,1.68,1.68,0,0,0-.73.63,7.43,7.43,0,0,0-.49.75c.26-.16.49-.34.74-.5a1.7,1.7,0,0,1,.68-.37,1.33,1.33,0,0,1,1.26.34,1.81,1.81,0,0,0,2,.4,1.78,1.78,0,0,0,.75-.62c.16-.25.35-.48.5-.75C151.5,151.13,151.27,151.31,151,151.46Zm-37.1,9.18a1.59,1.59,0,0,1-.69.34,1.36,1.36,0,0,1-1.26-.39,1.75,1.75,0,0,0-2-.34,1.84,1.84,0,0,0-.73.64c-.16.24-.33.46-.5.73a7.43,7.43,0,0,0,.75-.49,2.26,2.26,0,0,1,.67-.37,1.37,1.37,0,0,1,1.28.35,1.8,1.8,0,0,0,1.94.4,1.69,1.69,0,0,0,.76-.62c.16-.25.34-.48.48-.74A7.76,7.76,0,0,0,113.92,160.64Zm13.17-21.25a1.57,1.57,0,0,1-.69.33,1.36,1.36,0,0,1-1.26-.39,1.76,1.76,0,0,0-2-.34,1.87,1.87,0,0,0-.72.64c-.16.24-.33.46-.5.73a7.43,7.43,0,0,0,.75-.49,2.21,2.21,0,0,1,.67-.36,1.34,1.34,0,0,1,1.28.34,1.8,1.8,0,0,0,1.94.4,1.69,1.69,0,0,0,.76-.62c.16-.24.34-.48.48-.74A6.33,6.33,0,0,0,127.09,139.39Zm-35,2.3a1.3,1.3,0,0,1-.68.33,1.34,1.34,0,0,1-1.28-.37,1.76,1.76,0,0,0-2-.36,2,2,0,0,0-.73.65q-.19.26-.36.51l0,.16c.22-.12.43-.28.64-.42a1.53,1.53,0,0,1,.67-.36,1.32,1.32,0,0,1,1.27.34,1.81,1.81,0,0,0,2,.4,1.67,1.67,0,0,0,.74-.61c.16-.25.36-.49.5-.75C92.53,141.35,92.29,141.53,92.05,141.69ZM108,110.29a1.37,1.37,0,0,1-.68.34,1.29,1.29,0,0,1-1.25-.39,1.8,1.8,0,0,0-2-.33,1.68,1.68,0,0,0-.73.63c-.15.25-.35.49-.5.75.27-.16.5-.34.75-.5a1.5,1.5,0,0,1,.67-.35,1.32,1.32,0,0,1,1.28.32,1.75,1.75,0,0,0,2.7-.22c.15-.25.34-.48.48-.74C108.46,110,108.23,110.13,108,110.29Zm-3.53-20.54a1.54,1.54,0,0,1-.68.33,1.28,1.28,0,0,1-1.25-.38,1.8,1.8,0,0,0-2-.34,1.7,1.7,0,0,0-.73.64l-.2.28c0,.11-.06.22-.1.33l.55-.36a1.41,1.41,0,0,1,.67-.35,1.34,1.34,0,0,1,1.28.31,1.75,1.75,0,0,0,2.7-.21c.16-.25.33-.48.48-.75C104.93,89.41,104.7,89.59,104.45,89.75ZM131.51,89a1.56,1.56,0,0,1-.67.33,1.28,1.28,0,0,1-1.26-.39,1.82,1.82,0,0,0-2-.33,1.68,1.68,0,0,0-.73.63c-.16.25-.35.49-.5.75.27-.16.5-.33.75-.5a1.48,1.48,0,0,1,.68-.35,1.31,1.31,0,0,1,1.27.32,1.73,1.73,0,0,0,1.93.4,1.76,1.76,0,0,0,.77-.62c.16-.24.33-.48.48-.74C132,88.64,131.76,88.82,131.51,89ZM96.2,157.25c-.07-.3-.11-.59-.18-.87a6.09,6.09,0,0,0-.17.87,1.66,1.66,0,0,1-.24.73,1.26,1.26,0,0,1-1,.64c.3.14.6.28.9.4a1.8,1.8,0,0,0,.61-.81A1.88,1.88,0,0,0,96.2,157.25Zm37.28-51.79c-.07-.28-.1-.56-.17-.86a5.74,5.74,0,0,0-.18.86,1.7,1.7,0,0,1-.23.75,1.33,1.33,0,0,1-1.14.66,1.77,1.77,0,0,0-1.65,1.1,1.46,1.46,0,0,0-.09,1c.06.3.09.58.16.87a6.39,6.39,0,0,0,.18-.87,1.67,1.67,0,0,1,.25-.72,1.32,1.32,0,0,1,1.17-.61,1.8,1.8,0,0,0,1.63-1.16A2.06,2.06,0,0,0,133.48,105.46Zm-26,21.59a7.88,7.88,0,0,0-.17-.87c-.08.28-.11.57-.18.87a1.79,1.79,0,0,1-.22.73,1.32,1.32,0,0,1-1.13.65,1.85,1.85,0,0,0-1.67,1.1,1.77,1.77,0,0,0-.09,1c.06.3.09.58.18.89.09-.31.12-.59.18-.89a1.41,1.41,0,0,1,.25-.71,1.28,1.28,0,0,1,1.16-.62,1.72,1.72,0,0,0,1.69-2.11ZM117,75.92c0-.31-.1-.6-.17-.88a7.62,7.62,0,0,0-.17.88,1.91,1.91,0,0,1-.23.72,1.32,1.32,0,0,1-1.14.66,1.8,1.8,0,0,0-1.65,1.1,1.74,1.74,0,0,0-.11,1c.07.29.11.57.18.87.09-.3.12-.58.18-.87a1.7,1.7,0,0,1,.24-.72,1.4,1.4,0,0,1,1.18-.63,1.81,1.81,0,0,0,1.64-1.15A1.83,1.83,0,0,0,117,75.92ZM144,120.25a2.14,2.14,0,0,1-.68.38,1.39,1.39,0,0,1-1.28-.35,1.81,1.81,0,0,0-1.94-.4,1.6,1.6,0,0,0-.75.62c-.17.25-.35.48-.5.75.27-.17.5-.34.75-.5a1.58,1.58,0,0,1,.67-.34,1.44,1.44,0,0,1,1.28.39,1.8,1.8,0,0,0,2,.34,2,2,0,0,0,.73-.64c.15-.25.33-.48.47-.74C144.5,119.91,144.28,120.09,144,120.25Zm3.58,18.3a1.58,1.58,0,0,1-.71-.25,1.33,1.33,0,0,1-.62-1.18,1.81,1.81,0,0,0-1.15-1.63,2,2,0,0,0-1-.05c-.28.05-.57.09-.87.16a7.4,7.4,0,0,0,.87.17,2.14,2.14,0,0,1,.75.24,1.35,1.35,0,0,1,.65,1.13,1.78,1.78,0,0,0,1.08,1.65,1.62,1.62,0,0,0,1,.11c.3-.07.59-.11.87-.18A7.88,7.88,0,0,0,147.61,138.55ZM93.82,121.66a1.8,1.8,0,0,1-.72-.23,1.38,1.38,0,0,1-.62-1.17,1.77,1.77,0,0,0-.32-1c-.12.49-.23,1-.35,1.46a1.83,1.83,0,0,0,1,1.21,1.8,1.8,0,0,0,1,.08,6.83,6.83,0,0,0,.88-.17C94.4,121.76,94.12,121.73,93.82,121.66Zm29.65,1.77a1.8,1.8,0,0,1-.71-.23,1.37,1.37,0,0,1-.62-1.17A1.8,1.8,0,0,0,121,120.4a1.53,1.53,0,0,0-1-.07c-.3.07-.59.1-.89.17a7,7,0,0,0,.89.18,1.74,1.74,0,0,1,.73.21,1.35,1.35,0,0,1,.65,1.14,1.83,1.83,0,0,0,1.1,1.67,1.78,1.78,0,0,0,1,.08,5.4,5.4,0,0,0,.89-.18C124.06,123.53,123.78,123.5,123.47,123.43Zm-14.39,23.71a2,2,0,0,1-.73-.25,1.42,1.42,0,0,1-.62-1.18,1.74,1.74,0,0,0-1.15-1.62,1.78,1.78,0,0,0-1-.08c-.3.08-.59.11-.87.18a7.88,7.88,0,0,0,.87.18,1.74,1.74,0,0,1,.73.22,1.38,1.38,0,0,1,.67,1.15,1.77,1.77,0,0,0,1.08,1.65,1.67,1.67,0,0,0,1,.08,5.61,5.61,0,0,0,.87-.18C109.65,147.22,109.37,147.19,109.08,147.14Zm21.46,9.07a1.58,1.58,0,0,1-.73-.25,1.35,1.35,0,0,1-.62-1.18,1.78,1.78,0,0,0-1.16-1.63,1.73,1.73,0,0,0-1-.05c-.29.05-.59.09-.87.16a6.37,6.37,0,0,0,.87.17,2,2,0,0,1,.73.23,1.38,1.38,0,0,1,.67,1.14,1.76,1.76,0,0,0,1.08,1.65,1.68,1.68,0,0,0,1,.11c.28-.07.57-.11.87-.18A7.4,7.4,0,0,0,130.54,156.21Zm-12.87-56.06a1.63,1.63,0,0,1-.71-.25,1.32,1.32,0,0,1-.62-1.18,1.84,1.84,0,0,0-1.15-1.63,1.91,1.91,0,0,0-1,0,6.87,6.87,0,0,0-.88.18c.3.07.58.1.88.16a2,2,0,0,1,.74.23,1.37,1.37,0,0,1,.65,1.14,1.8,1.8,0,0,0,1.1,1.65,1.69,1.69,0,0,0,1,.1c.3-.07.59-.1.87-.18A7.88,7.88,0,0,0,117.67,100.15Z"/><path class="cls-3" d="M134.42,83.44c16.57,26.89,31.66,56.75,26.14,64.38-4.45,6.15-44.83,22.64-58.29,23.67-4.28.33-14.89-31.15-7.8-33.69,2-.73,34.83-7,35-7.76.64-2.44-3.78-18.85-7.84-37.56C116.42,68.41,127.41,72.06,134.42,83.44Z"/><path class="cls-3" d="M78.46,143.36c2-.72,3.18-2.31-.41-3.5S59.23,137,60.27,131.73s22.16-1.61,28.31-.15a24.62,24.62,0,0,1,14.93,10.58C93.69,142.74,86.19,143.21,78.46,143.36Z"/><path class="cls-4" d="M67.07,129a47.9,47.9,0,0,1,6.11-.12c2,.06,4.07.25,6.1.5a47.75,47.75,0,0,1,11.84,3c-1-.19-2-.48-3-.64s-2-.41-3-.58c-2-.33-4-.67-6-.92s-4-.48-6-.69c-1-.11-2-.2-3-.28S68.08,129.06,67.07,129Z"/><rect class="cls-8" x="69.05" y="105.62" width="3.13" height="69.92" transform="translate(-70.14 210.84) rotate(-89.86)"/><polygon class="cls-4" points="35.66 138.92 35.65 142.06 83.18 142.17 80.79 139.03 35.66 138.92"/><polygon class="cls-8" points="77.76 142.16 9.62 141.99 4.06 95.7 72.2 95.87 77.76 142.16"/><path class="cls-6" d="M45.06,118.94A4.06,4.06,0,0,1,41,123.08a4.25,4.25,0,0,1-4.22-4.16,4.07,4.07,0,0,1,4.09-4.14A4.24,4.24,0,0,1,45.06,118.94Z"/><path class="cls-3" d="M102.18,171.49c-12,.68-29.28-1.09-40.5-8.85a6.73,6.73,0,0,1-2.7-3.5c-5.1-3.39-5-6.81-5-6.81-3.78-4.61-3.23-8.1-3.23-8.1s-5.93-4-4.08-8c2.06-4.48,10,2.08,16.56,3,15,2.15,37.33,3.19,41.73,3.38Z"/><path class="cls-4" d="M77.37,152.51a96.8,96.8,0,0,1-13.06-2.63,97.48,97.48,0,0,1-13.43-5.73.12.12,0,0,0-.12.21,51.68,51.68,0,0,0,26.58,8.35C77.56,152.72,77.6,152.55,77.37,152.51Z"/><path class="cls-4" d="M77.4,161.78c-4.26-.94-11.73-2.64-23.39-9.6,0,0-.09,0,0,.06A46.36,46.36,0,0,0,77.35,162C77.62,162,77.68,161.84,77.4,161.78Z"/><path class="cls-4" d="M77.31,166.76c-7.17-1.87-11.46-4-18.31-7.66a0,0,0,0,0,0,.07c7.33,5,10.57,6,18.32,7.85C77.55,167.08,77.59,166.84,77.31,166.76Z"/><path class="cls-5" d="M126.73,122.43l33.1.87s-17.37-31.3-27-42.95C122.83,68.2,116,69,119.51,89.58A325.51,325.51,0,0,0,126.73,122.43Z"/><path class="cls-6" d="M151.4,108.66a3.25,3.25,0,0,1-.43-.08,1.7,1.7,0,0,1-.73-.24,1.34,1.34,0,0,1-.62-1.17,1.78,1.78,0,0,0-1.16-1.64,1.87,1.87,0,0,0-1-.07c-.3.07-.58.11-.87.18a8.38,8.38,0,0,0,.87.18,1.47,1.47,0,0,1,.73.23,1.36,1.36,0,0,1,.68,1.13,1.74,1.74,0,0,0,1.08,1.65,1.68,1.68,0,0,0,1,.1c.17,0,.35-.06.53-.11a1.94,1.94,0,0,0,.33-.07C151.69,108.71,151.54,108.69,151.4,108.66ZM144,120.25a2.14,2.14,0,0,1-.68.38,1.39,1.39,0,0,1-1.28-.35,1.81,1.81,0,0,0-1.94-.4,1.6,1.6,0,0,0-.75.62c-.17.25-.35.48-.5.75.27-.17.5-.34.75-.5a1.58,1.58,0,0,1,.67-.34,1.44,1.44,0,0,1,1.28.39,1.8,1.8,0,0,0,2,.34,2,2,0,0,0,.73-.64c.15-.25.33-.48.47-.74C144.5,119.91,144.28,120.09,144,120.25ZM142,93.32a1.58,1.58,0,0,0-.35.53,1.88,1.88,0,0,0-.09,1c.06.3.09.59.18.89.09-.3.12-.59.18-.89a1.41,1.41,0,0,1,.25-.71,1.45,1.45,0,0,1,.19-.23Zm-8.5,12.14c-.07-.28-.1-.56-.17-.86a5.74,5.74,0,0,0-.18.86,1.7,1.7,0,0,1-.23.75,1.33,1.33,0,0,1-1.14.66,1.77,1.77,0,0,0-1.65,1.1,1.46,1.46,0,0,0-.09,1c.06.3.09.58.16.87a6.39,6.39,0,0,0,.18-.87,1.67,1.67,0,0,1,.25-.72,1.32,1.32,0,0,1,1.17-.61,1.8,1.8,0,0,0,1.63-1.16A2.06,2.06,0,0,0,133.48,105.46Zm-2-16.48a1.56,1.56,0,0,1-.67.33,1.28,1.28,0,0,1-1.26-.39,1.82,1.82,0,0,0-2-.33,1.68,1.68,0,0,0-.73.63c-.16.25-.35.49-.5.75.27-.16.5-.33.75-.5a1.48,1.48,0,0,1,.68-.35,1.31,1.31,0,0,1,1.27.32,1.73,1.73,0,0,0,1.93.4,1.76,1.76,0,0,0,.77-.62c.16-.24.33-.48.48-.74C132,88.64,131.76,88.82,131.51,89Z"/><path class="cls-4" d="M154.52,117.84c-.83-.11-1.68-.1-2.51-.14l-2.58-.1c-1.74-.08-3.48-.12-5.22-.16-3.47-.07-7-.16-10.43-.17-1,0-1.91,0-2.87,0s-2,.12-3,.14a0,0,0,1,0,0,.09c.86,0,1.72.16,2.58.21s1.77.08,2.65.11c1.74,0,3.48.09,5.22.11,3.43,0,6.85.11,10.28.08l2.87,0c1,0,2,0,3-.06C154.57,117.93,154.58,117.85,154.52,117.84Z"/><path class="cls-4" d="M148.85,105.53c-1.18-2-2.3-4-3.45-6-1.31-2.28-2.54-4.61-3.82-6.92,0-.06.07-.11.11-.06,1.51,2.43,6.6,10.51,7.43,11.89q3.63,6,7.2,12.07c1.34,2.26,2.82,4.89,4.14,7.16a21,21,0,0,1-4-.17c-.07,0-.16-.24-.07-.24,1.32,0,3.1-.11,3.27-.1q-3.65-5.7-7.14-11.49Q150.67,108.59,148.85,105.53Z"/><path class="cls-4" d="M122.67,107a9.8,9.8,0,0,1-1.38-3.57s0,0,0,0a20,20,0,0,0,1.26,3.19l-.27-1.38c-.33-1.66-.67-3.32-.92-5,0,0,0,0,0,0,.77,2.86,1.41,5.75,2.11,8.62s1.4,5.82,2.1,8.74c.38,1.59.76,3.18,1.1,4.78.54,0,1,0,1.44.1.13,0,.13.24,0,.24a10,10,0,0,1-1.8-.07C124.86,117.48,123.72,112.23,122.67,107Z"/><path class="cls-3" d="M108.44,85.66c4.15.66,10.68-6.1,13.06-11.35.16-.36-.64-4-1.41-8.4-.46-2.69-.91-5.7-1.12-8.47L101.9,63a44.07,44.07,0,0,1,2.48,10.52,7.27,7.27,0,0,1,0,1.15,1,1,0,0,0,0,.19C104.15,77,104.43,85,108.44,85.66Z"/><path class="cls-4" d="M117.77,57.83c-.23,3.71-1.73,16-11.64,17a9.17,9.17,0,0,1-1.8,0,.57.57,0,0,0,0-.18,6.23,6.23,0,0,0,0-1.15A44.07,44.07,0,0,0,101.9,63Z"/><path class="cls-3" d="M116.28,34.82c3.27,5.58,4.23,23.72.88,28.61-4.87,7.1-14.9,10.05-21.45,3.73C89.37,61,88.53,37.38,92.47,32.72,98.28,25.86,111.45,26.58,116.28,34.82Z"/><path class="cls-4" d="M102.3,49.7s.1.06.1.11c0,1.22.28,2.62,1.4,3,0,0,0,.07,0,.07C102.44,52.72,102.14,50.87,102.3,49.7Z"/><path class="cls-4" d="M103.32,48.37c2-.27,2.34,3.66.52,3.91S101.68,48.59,103.32,48.37Z"/><path class="cls-4" d="M95.05,50.16s-.09.06-.08.11c.15,1.22.13,2.63-.93,3.15,0,0,0,.07,0,.06C95.38,53.16,95.39,51.28,95.05,50.16Z"/><path class="cls-4" d="M93.84,49c-2,0-1.74,4,.08,3.95S95.49,49,93.84,49Z"/><path class="cls-4" d="M104.69,46.42c-.54-.09-1-.25-1.57-.39a2.68,2.68,0,0,1-1.53-.7.83.83,0,0,1,0-1,2.07,2.07,0,0,1,2.05-.42A3,3,0,0,1,105.55,45,.89.89,0,0,1,104.69,46.42Z"/><path class="cls-4" d="M92.13,47.16a13.85,13.85,0,0,0,1.52-.56,2.64,2.64,0,0,0,1.45-.86.84.84,0,0,0-.15-1,2.08,2.08,0,0,0-2.09-.19,3.07,3.07,0,0,0-1.74,1.34A.89.89,0,0,0,92.13,47.16Z"/><path class="cls-4" d="M104.32,60.72c-.27.32-.52.74-1,.82a3.42,3.42,0,0,1-1.34-.18s-.07,0,0,.07a1.67,1.67,0,0,0,1.61.51,1.3,1.3,0,0,0,.85-1.17C104.45,60.69,104.36,60.68,104.32,60.72Z"/><path class="cls-4" d="M102.68,57.2a4.2,4.2,0,0,1-2.58,2.12,5.36,5.36,0,0,1-1.49.21,1.38,1.38,0,0,1-.29,0h-.27a.32.32,0,0,1-.27-.25h0a.56.56,0,0,1,0-.13h0V59c-.12-.94-.16-2.37-.16-2.37-.33.2-2,1.16-2,.67A62.89,62.89,0,0,1,96,44.6a.12.12,0,0,1,.23,0c.3,3.92-.09,7.86.15,11.79a7.34,7.34,0,0,1,1.9-.78c.13,0,0,2.77.12,3.19l0,0a5.76,5.76,0,0,0,4.16-1.75C102.64,57,102.75,57.1,102.68,57.2Z"/><path class="cls-8" d="M95.24,37.19a6.87,6.87,0,0,0,6.43,1.88,7,7,0,0,0,5.09-4.57c0-.06.13,0,.11,0a7,7,0,0,1-5.06,5.07,7.09,7.09,0,0,1-6.7-2.3A.09.09,0,0,1,95.24,37.19Z"/><path class="cls-8" d="M100.72,21.91a7.42,7.42,0,0,1,7.93,2.26,10.09,10.09,0,0,1,2.16,4.6c0,.07-.08.09-.1,0a9.33,9.33,0,0,0-5.27-6.21,6.23,6.23,0,0,0-7,1.58A6.3,6.3,0,0,0,96.81,28a.13.13,0,0,1-.25,0A6.43,6.43,0,0,1,100.72,21.91Z"/><path class="cls-8" d="M79.88,30.42a8.34,8.34,0,0,1,3.21-4.71c2.21-1.59,4.84-1.57,7.44-1.49a.06.06,0,0,1,0,.11c-2.22-.06-4.47,0-6.43,1.19a8.27,8.27,0,0,0-3.49,4.24,8,8,0,0,0,4,9.64,8.14,8.14,0,0,0,6.42.19c.08,0,.15.08.07.12a8.24,8.24,0,0,1-10.35-3.38A8.34,8.34,0,0,1,79.88,30.42Z"/><path class="cls-8" d="M117.11,35.69s-.81-5.49-2.4-7.06S109.92,27,109.92,27s-2.26-4.51-6.75-4.42c-4,.08-6.43,3.85-6.43,3.85s-6-5-12.09-1.31c-5.74,3.5-4.17,12.59,1.92,15,4.27,1.69,9.58-2.38,9.58-2.38.55,0,6.31,2.93,10.1-2.3,0,0,4,2.59,6,.35C112.23,35.75,115.24,36.86,117.11,35.69Z"/><path class="cls-9" d="M119.24,50.2c-1.13-.67-3.55-5.14-4.65-7-1-1.69-1.72-8.82-2-12.37a12.53,12.53,0,0,1,3.71,4C118,37.74,119.08,44.1,119.24,50.2Z"/><path class="cls-3" d="M115.94,49.87s2.72-6.5,5.59-5.65,1.68,9.68-1.09,11.45a3.12,3.12,0,0,1-4.45-.75Z"/><path class="cls-4" d="M121.13,46.74a0,0,0,0,1,0,.08c-1.92,1.31-2.61,3.51-3,5.71a1.73,1.73,0,0,1,2.43-1c.06,0,0,.12,0,.12a1.92,1.92,0,0,0-1.93,1.11,8.93,8.93,0,0,0-.63,1.89c-.06.21-.42.18-.4,0v-.06C117,51.86,118.3,47.64,121.13,46.74Z"/><path class="cls-8" d="M104.32,74.45,110,84l10.68-14.76,4.2,3.58s-9.26,22.3-9.48,21.39l-5.51-8.13-5.13,7-1.82-15.38Z"/><path class="cls-4" d="M103.43,85.57c-.21-2.55-.5-5.11-.6-7.67,0-.09.13-.15.17-.05.87,2.37,1.65,12.11,2,14.43,0,0,0,0,0,0,.21-.31,4.79-6.21,4.86-6.14,1.12,1.25,5.15,7.17,5.45,7.72,1.47-3.54,7.17-16.47,9-19.89a.09.09,0,1,1,.16.06c-1.21,3.69-8.71,21.07-8.87,21a98.66,98.66,0,0,1-5.78-8.6c-.74,1.25-5.27,7.82-5.34,7.45A80.44,80.44,0,0,1,103.43,85.57Z"/></svg>