<?xml version="1.0" encoding="utf-8"?>
<!-- Generator: Adobe Illustrator 26.2.1, SVG Export Plug-In . SVG Version: 6.00 Build 0)  -->
<svg version="1.1" id="Layer_1" xmlns="http://www.w3.org/2000/svg" xmlns:xlink="http://www.w3.org/1999/xlink" x="0px" y="0px"
	 viewBox="0 0 356 356" style="enable-background:new 0 0 356 356;" xml:space="preserve">
<style type="text/css">
	.st0{fill:#9F00CD;}
	.st1{fill:#1A2E35;}
	.st2{fill:#FFC800;}
	.st3{fill:#FF9581;}
	.st4{fill:#A8A8A8;}
	.st5{fill:#FFFFFF;}
	.st6{fill:#C8C8C8;}
	.st7{fill:#375A64;}
	.st8{fill:#DCDCDC;}
</style>
<path class="st0" d="M175.3,324.2c-87.6,0-158.8-71.2-158.8-158.8S87.7,6.5,175.3,6.5s158.8,71.2,158.8,158.8
	S262.9,324.2,175.3,324.2z M175.3,14.3C92,14.3,24.2,82,24.2,165.3S92,316.4,175.3,316.4s151-67.8,151-151.1S258.6,14.3,175.3,14.3z
	"/>
<circle class="st0" cx="175.3" cy="165.3" r="137.2"/>
<path class="st1" d="M210.5,134.6c0,0.6-0.4,1.2-1,1.3c-1.4,0.1-3.1,0.2-5,0.3c-4.5-11.7-9.3-21-8.1-17.3c1.9,5.7,3,11.6,3.1,17.6
	c-2.2,0.1-7.3,0.4-9.9,0.5c-3.9-20.6-8.9-35.8-8.6-31.1c1.3,19,0.1,25.1-1.2,31.6c-23.9,1.1-55.2,2.3-77.8,2.6
	c-2.6-11.4-4.9-23.7-5.3-22.8c-3.1,6.4-3.9,15.7-4,22.9c-7.2,0.1-13,0-16.5-0.3c0,0-1.7-9.6-1.9-12.7c-0.6-8.1,0.2-16.2,2.5-24
	c2.4-8,6.5-15,10.5-22.2l0.1-0.2c0,0,0,0,0-0.1c2.6-4.7,4.6-9.7,6-14.8c0,0,0-0.1,0-0.1c1-3.7,1.6-7.6,1.9-11.4
	c1-14,8.9-26.2,22.1-29.9c25-23.4,50-13.6,57.5,4.4c0.7,1.8,1.4,3.8,2.1,6v0.1c2.6,8.1,4.8,18.6,7,26.8l0,0c0,0,0,0.1,0,0.1l0,0
	c0.8,3.2,1.8,6.3,3,9.4C193.4,86,207.8,94.3,210.5,134.6z"/>
<path class="st1" d="M111.8,28.5c-8.7,4.5-14,11.1-15.3,21.4c-0.8,6-1.2,11.8-3.5,17.5c-2.4,5.8-6.1,10.6-10,15.4
	c-6.1,7.6-10.4,15.1-11.3,25.2c-1,10.2-0.5,22.3,3,31.8 M74.8,139.7c-2.8-9.7-2.8-23.1-1.1-33.2c1.9-11.1,8.2-18.1,14.6-26.6
	c5.1-6.6,8.4-14.4,9.5-22.7c0.6-5.1,0.6-10.3,2.6-15.1c2.4-5.7,7.3-9.3,12.1-12.5c0.3-0.2,0.3-0.6,0.2-0.8c-0.2-0.2-0.5-0.3-0.8-0.2
	L74.8,139.7z"/>
<path class="st1" d="M201.7,87c-6.1-8-12.5-14.7-16.1-24.6c-3.3-9-5.1-18.5-8.4-27.5c0-0.1-0.1-0.1-0.1-0.1c-0.1,0-0.1,0.1-0.1,0.1
	c5.1,16,6.1,32.1,16.4,45.5c5.6,7.3,11.2,14,14.9,22.8c3.8,9.2,5.7,19,5.8,28.9c0,0.1,0.1,0.2,0.2,0.2s0.2-0.1,0.2-0.2
	C216.1,116,211.5,99.9,201.7,87z"/>
<path class="st2" d="M39.1,298.3c0.1-0.4,0.1-0.8,0.2-1.2c-0.1,0.5-0.2,1-0.2,1.5C39.1,298.5,39.1,298.4,39.1,298.3z"/>
<path class="st2" d="M103.9,309.8c-0.2,0.1-0.4,0.3-0.7,0.4l-0.1-0.2l0,0C103.4,309.9,103.6,309.9,103.9,309.8
	C103.8,309.8,103.9,309.8,103.9,309.8z"/>
<path class="st3" d="M130.7,137.4c-40.5,41.1-91.5,127.5-82,145c10.6,19.5,67-38.1,66.8-41.4c-0.2-2.6,19.7-55,34.8-93.2
	S140.7,127.2,130.7,137.4z"/>
<path class="st4" d="M115.9,241c1.7-5.6,28.7-74.8,36.5-96.7s0.6-28.7-21.5-8.6s-70.4,87-81.4,122.6c-10.6,34.2,7,34.2,30.3,18.5
	C98.7,263.8,115.9,241,115.9,241z"/>
<path class="st5" d="M155.2,132.5c0,0.4-0.1,0.8-0.1,1.2c-0.3,0.4-0.7,0.6-1.2,0.6c-0.8,0-1.4-0.6-1.4-1.4c0,0,0,0,0,0
	c0-0.8,0.6-1.4,1.4-1.4C154.5,131.6,155,131.9,155.2,132.5z M109.2,161.5c-0.8,0-1.4,0.6-1.4,1.4c0,0.8,0.6,1.4,1.4,1.4
	c0.8,0,1.4-0.6,1.4-1.4c0,0,0,0,0,0C110.6,162.1,110,161.5,109.2,161.5C109.3,161.4,109.3,161.4,109.2,161.5L109.2,161.5z
	 M131.6,161.5c-0.8,0-1.4,0.6-1.4,1.4c0,0.8,0.6,1.4,1.4,1.4c0.8,0,1.4-0.6,1.4-1.4c0,0,0,0,0,0C133,162.1,132.4,161.5,131.6,161.5
	C131.6,161.4,131.6,161.4,131.6,161.5L131.6,161.5z M120.4,147.1c-0.8,0-1.4,0.6-1.4,1.4s0.6,1.4,1.4,1.4s1.4-0.6,1.4-1.4l0,0
	C121.8,147.8,121.2,147.1,120.4,147.1C120.4,147.1,120.4,147.1,120.4,147.1L120.4,147.1z M142.8,147.1c-0.8,0-1.4,0.6-1.4,1.4
	s0.6,1.4,1.4,1.4s1.4-0.6,1.4-1.4l0,0C144.2,147.8,143.5,147.1,142.8,147.1C142.8,147.1,142.8,147.1,142.8,147.1L142.8,147.1z
	 M86.9,191.3c-0.8,0-1.4,0.6-1.4,1.4s0.6,1.4,1.4,1.4s1.4-0.6,1.4-1.4l0,0C88.3,192,87.7,191.3,86.9,191.3
	C86.9,191.3,86.9,191.3,86.9,191.3L86.9,191.3z M109.2,191.3c-0.8,0-1.4,0.6-1.4,1.4s0.6,1.4,1.4,1.4s1.4-0.6,1.4-1.4l0,0
	C110.6,192,110,191.3,109.2,191.3C109.3,191.3,109.3,191.3,109.2,191.3L109.2,191.3z M131.6,191.3c-0.8,0-1.4,0.6-1.4,1.4
	s0.6,1.4,1.4,1.4s1.4-0.6,1.4-1.4l0,0C133,192,132.4,191.3,131.6,191.3C131.6,191.3,131.6,191.3,131.6,191.3L131.6,191.3z M98.1,177
	c-0.8,0-1.4,0.6-1.4,1.4s0.6,1.4,1.4,1.4s1.4-0.6,1.4-1.4l0,0C99.5,177.6,98.9,177,98.1,177z M120.4,177c-0.8,0-1.4,0.6-1.4,1.4
	s0.6,1.4,1.4,1.4s1.4-0.6,1.4-1.4l0,0C121.8,177.6,121.2,177,120.4,177z M86.9,221.2c-0.8,0-1.4,0.6-1.4,1.4s0.6,1.4,1.4,1.4
	s1.4-0.6,1.4-1.4l0,0C88.3,221.8,87.7,221.2,86.9,221.2L86.9,221.2z M109.3,221.2c-0.8,0-1.4,0.6-1.4,1.4s0.6,1.4,1.4,1.4
	s1.4-0.6,1.4-1.4l0,0C110.6,221.8,110,221.2,109.3,221.2L109.3,221.2z M75.8,206.9c-0.8,0-1.4,0.6-1.4,1.4c0,0.8,0.6,1.4,1.4,1.4
	c0.8,0,1.4-0.6,1.4-1.4c0,0,0,0,0,0C77.1,207.5,76.5,206.9,75.8,206.9C75.8,206.9,75.8,206.9,75.8,206.9z M98.1,206.9
	c-0.8,0-1.4,0.6-1.4,1.4c0,0.8,0.6,1.4,1.4,1.4c0.8,0,1.4-0.6,1.4-1.4c0,0,0,0,0,0C99.5,207.5,98.9,206.9,98.1,206.9
	C98.1,206.9,98.1,206.9,98.1,206.9z M120.4,206.9c-0.8,0-1.4,0.6-1.4,1.4c0,0.8,0.6,1.4,1.4,1.4c0.8,0,1.4-0.6,1.4-1.4c0,0,0,0,0,0
	C121.8,207.5,121.2,206.9,120.4,206.9C120.4,206.9,120.4,206.9,120.4,206.9z M64.6,251.1c-0.8,0-1.4,0.6-1.4,1.4
	c0,0.8,0.6,1.4,1.4,1.4c0.8,0,1.4-0.6,1.4-1.4c0,0,0,0,0,0C66,251.7,65.4,251.1,64.6,251.1C64.6,251.1,64.6,251.1,64.6,251.1
	L64.6,251.1z M86.9,251.1c-0.8,0-1.4,0.6-1.4,1.4c0,0.8,0.6,1.4,1.4,1.4c0.8,0,1.4-0.6,1.4-1.4c0,0,0,0,0,0
	C88.3,251.7,87.7,251.1,86.9,251.1C86.9,251.1,86.9,251.1,86.9,251.1L86.9,251.1z M75.7,236.8c-0.8,0-1.4,0.6-1.4,1.4
	s0.6,1.4,1.4,1.4s1.4-0.6,1.4-1.4l0,0C77.1,237.4,76.5,236.8,75.7,236.8L75.7,236.8z M98.1,236.8c-0.8,0-1.4,0.6-1.4,1.4
	s0.6,1.4,1.4,1.4s1.4-0.6,1.4-1.4l0,0C99.5,237.4,98.9,236.8,98.1,236.8L98.1,236.8z M64.6,281c-0.8,0-1.4,0.6-1.4,1.4
	c0,0.8,0.6,1.4,1.4,1.4s1.4-0.6,1.4-1.4S65.3,281,64.6,281L64.6,281z M53.4,266.7c-0.8,0-1.4,0.6-1.4,1.4c0,0.8,0.6,1.4,1.4,1.4
	s1.4-0.6,1.4-1.4c0,0,0,0,0,0C54.8,267.3,54.2,266.7,53.4,266.7C53.4,266.7,53.4,266.7,53.4,266.7L53.4,266.7z M75.8,266.7
	c-0.8,0-1.4,0.6-1.4,1.4c0,0.8,0.6,1.4,1.4,1.4c0.8,0,1.4-0.6,1.4-1.4c0,0,0,0,0,0C77.2,267.3,76.5,266.7,75.8,266.7
	C75.8,266.7,75.8,266.7,75.8,266.7L75.8,266.7z"/>
<path class="st6" d="M246.4,282.7C201.2,310.1,144.2,309,100,280l0.3-1.8l5.8-43.1c0,0-13.7-23.9-5.7-41.1c4-8.7,39.2-62.8,54-73.5
	c13.9-10.1,34.1,0.7,41.6,8.6C222.6,157.2,236.3,210.4,246.4,282.7z"/>
<path class="st1" d="M100.4,278.2c0.7-7.2,1.5-14.4,2.4-21.6s1.6-14.4,2.6-21.6l0.2,0.6c-4.1-5.9-6.8-12.7-7.9-19.8
	c-0.6-3.5-0.7-7.1-0.5-10.7c0.4-3.6,1.3-7.1,2.6-10.4c2.7-6.6,6-12.8,10-18.7c3.9-5.9,8.1-11.5,12.6-16.9c-4.1,5.7-8,11.6-11.6,17.5
	c-3.7,5.9-6.8,12.2-9.4,18.7c-1.3,3.2-2.1,6.5-2.4,9.9c-0.2,3.4,0,6.9,0.5,10.3c1,6.8,3.6,13.3,7.4,19.1l0.2,0.3v0.3
	c-1,7.2-2.1,14.3-3.2,21.5C102.8,263.9,101.6,271.1,100.4,278.2z"/>
<path class="st1" d="M110.6,176.2c0-1,0.2-1.9,0.5-2.9c0.3-0.9,0.6-1.8,1-2.7c0.4-0.9,0.8-1.7,1.3-2.6c0.5-0.8,1-1.6,1.6-2.4
	c-0.5,1.8-1.2,3.6-2,5.4C112.3,172.7,111.5,174.4,110.6,176.2z"/>
<path class="st1" d="M130.2,229.6c7.8,0.3,15.6,1.6,23.1,3.9c7.6,2.1,24.2,8.8,28.4,10.4c0,0,0.1,0.1,0.1,0.1c0,0-0.1,0.1-0.1,0.1
	l0,0c-5.4-1.3-10.8-2.9-16.1-4.8c-7.4-2.5-14.9-4.8-22.4-6.8c-4.3-1.1-8.6-1.8-13-2.4c-0.1,0-0.2-0.1-0.2-0.3
	C130,229.7,130.1,229.6,130.2,229.6z"/>
<path class="st1" d="M116.4,233.6c8.2-0.7,16.4,0,24.3,2.1c0,0,0.1,0,0.1,0.1c0,0,0,0.1-0.1,0.1c-4-0.5-8-1-12.1-1.3
	s-8.1-0.6-12.2-0.8c-0.1,0-0.1,0-0.1-0.1S116.3,233.6,116.4,233.6z"/>
<path class="st3" d="M48.7,282.4c9.1,13,34,15.5,95.9,27.7c8.6,1.7,36.7-55.6,27.6-57.9c-11.4-2.9-56.3-11.4-59.7-11.6
	C84.2,238.7,42.5,273.5,48.7,282.4z"/>
<path class="st3" d="M159.8,249.4c0,0,26.2,4,39.4,10.3c17.6,8.5,29.3,23.1,33.8,29.5c9.5,13.4,23.1,52.3,12.6,58.1
	c-9.5,5.3-21.4-35.1-21.4-35.1s19,39.2,6.3,43.5s-23.8-43.5-23.8-43.5s18.6,40.8,4.8,43.1c-10.4,1.8-22.9-40.9-22.9-40.9
	s15.7,35.1,5.1,37.4c-11.7,2.5-25.7-36.1-25.7-36.1c-27.9,1.3-41.8-9.5-50.7-18.3C115.1,295.4,159.8,249.4,159.8,249.4z"/>
<path class="st1" d="M218.5,298.2c2.4,4.5,4.8,9.1,6.8,13.8s3.8,9.5,5.3,14.4c3.8,12,4.2,20.1,4.1,19.6c-2-11.8-8.8-28.8-10.8-33.5
	s-3.7-9.5-5.7-14.2C218.2,298.1,218.4,298.1,218.5,298.2z"/>
<path class="st1" d="M201.3,305c2.8,5.9,5.8,11.7,8.4,17.7s4.4,11.9,6.5,18.1c0.2,0.5-0.1,0.4-0.3-0.1c-2.4-6.1-5-11.5-7.4-17.6
	s-4.6-12.2-7.2-18.1C201.1,305,201.2,305,201.3,305z"/>
<path class="st1" d="M185.5,308.3c4.8,8.8,7.9,18.5,10.7,28.1c0.1,0.5-0.2,0.3-0.4-0.1c-3.4-9.4-6-16.8-10.6-27.8
	C185.1,308.3,185.4,308.1,185.5,308.3z"/>
<path class="st4" d="M165.3,249.4L111,309.8c0,0-54.9-12.6-63-26.7c-5.3-9.3,36-46.8,67.2-42.4L165.3,249.4z"/>
<path class="st5" d="M88.3,252.5c0,0.8-0.6,1.4-1.4,1.4c-0.8,0-1.4-0.6-1.4-1.4c0-0.8,0.6-1.4,1.4-1.4c0,0,0,0,0,0
	C87.7,251.1,88.3,251.7,88.3,252.5z M109.3,251.1c-0.8,0-1.4,0.6-1.4,1.4c0,0.8,0.6,1.4,1.4,1.4c0.8,0,1.4-0.6,1.4-1.4c0,0,0,0,0,0
	C110.7,251.7,110,251.1,109.3,251.1C109.3,251.1,109.3,251.1,109.3,251.1L109.3,251.1z M131.6,251.1c-0.8,0-1.4,0.6-1.4,1.4
	c0,0.8,0.6,1.4,1.4,1.4c0.8,0,1.4-0.6,1.4-1.4c0,0,0,0,0,0C133,251.7,132.4,251.1,131.6,251.1C131.6,251.1,131.6,251.1,131.6,251.1
	L131.6,251.1z M153.9,251.1c-0.8,0-1.4,0.6-1.4,1.4c0,0.8,0.6,1.4,1.4,1.4c0.8,0,1.4-0.6,1.4-1.4c0,0,0,0,0,0
	C155.3,251.7,154.7,251.1,153.9,251.1C153.9,251.1,153.9,251.1,153.9,251.1L153.9,251.1z M64.6,281c-0.8,0-1.4,0.6-1.4,1.4
	c0,0.8,0.6,1.4,1.4,1.4s1.4-0.6,1.4-1.4S65.3,281,64.6,281L64.6,281z M86.9,281c-0.8,0-1.4,0.6-1.4,1.4c0,0.8,0.6,1.4,1.4,1.4
	s1.4-0.6,1.4-1.4S87.7,281,86.9,281L86.9,281z M109.3,281c-0.8,0-1.4,0.6-1.4,1.4c0,0.8,0.6,1.4,1.4,1.4s1.4-0.6,1.4-1.4
	S110,281,109.3,281L109.3,281z M131.6,281c-0.8,0-1.4,0.6-1.4,1.4c0,0.8,0.6,1.4,1.4,1.4s1.4-0.6,1.4-1.4S132.4,281,131.6,281
	L131.6,281z M75.8,266.7c-0.8,0-1.4,0.6-1.4,1.4c0,0.8,0.6,1.4,1.4,1.4c0.8,0,1.4-0.6,1.4-1.4c0,0,0,0,0,0
	C77.2,267.3,76.5,266.7,75.8,266.7C75.8,266.7,75.8,266.7,75.8,266.7L75.8,266.7z M98.1,266.7c-0.8,0-1.4,0.6-1.4,1.4
	c0,0.8,0.6,1.4,1.4,1.4c0.8,0,1.4-0.6,1.4-1.4c0,0,0,0,0,0C99.5,267.3,98.9,266.7,98.1,266.7C98.1,266.7,98.1,266.7,98.1,266.7
	L98.1,266.7z M120.4,266.7c-0.8,0-1.4,0.6-1.4,1.4c0,0.8,0.6,1.4,1.4,1.4c0.8,0,1.4-0.6,1.4-1.4c0,0,0,0,0,0
	C121.8,267.3,121.2,266.7,120.4,266.7C120.5,266.7,120.4,266.7,120.4,266.7L120.4,266.7z M142.8,266.7c-0.8,0-1.4,0.6-1.4,1.4
	c0,0.8,0.6,1.4,1.4,1.4c0.8,0,1.4-0.6,1.4-1.4c0,0,0,0,0,0C144.2,267.3,143.6,266.7,142.8,266.7
	C142.8,266.7,142.8,266.7,142.8,266.7L142.8,266.7z M75.8,296.6c-0.8,0-1.4,0.6-1.4,1.4c0,0.8,0.6,1.4,1.4,1.4s1.4-0.6,1.4-1.4
	C77.2,297.2,76.6,296.6,75.8,296.6C75.8,296.5,75.8,296.5,75.8,296.6L75.8,296.6z M98.1,296.6c-0.8,0-1.4,0.6-1.4,1.4
	c0,0.8,0.6,1.4,1.4,1.4s1.4-0.6,1.4-1.4C99.5,297.2,98.9,296.6,98.1,296.6C98.1,296.5,98.1,296.5,98.1,296.6L98.1,296.6z
	 M120.5,296.6c-0.8-0.1-1.4,0.5-1.5,1.3c-0.1,0.8,0.5,1.4,1.3,1.5c0.1,0,0.2,0,0.2,0l1.4-1.5l0,0
	C121.8,297.1,121.2,296.5,120.5,296.6L120.5,296.6z"/>
<path class="st1" d="M78,250.5c5-3.6,19.2-12.1,37.3-9.9c0.2,0,0.2,0.3,0,0.3c-13.6-0.4-32,6.7-37.1,9.8
	C78,250.8,77.9,250.6,78,250.5z"/>
<path class="st1" d="M96.2,299.7c5.6-7,11.6-13.6,17.6-20.3s12-13.3,18.2-19.8c3.5-3.7,6.9-7.4,10.6-10.9c0.1-0.1,0.3,0,0.2,0.1
	c-5.6,7-11.6,13.6-17.5,20.3s-12,13.3-18.1,19.9c-3.4,3.7-6.9,7.4-10.6,10.9C96.4,300.1,96,299.9,96.2,299.7z"/>
<path class="st1" d="M165.4,248.6c-3.3-1-6.7-1.8-10.2-2.3c-3.4-0.7-6.9-1.3-10.3-1.8c-6.9-1.1-21.2-4.2-33.9-4.2
	c-0.1,0,0.6,0.7,0.7,0.7c6-0.3,49.1,8.3,52.7,8.5c-0.1,0.2-0.3,0.5-0.4,0.7c-0.1,0.2,0.1,0.4,0.3,0.3c0.4-0.3,0.8-0.7,1.2-1
	c0.2-0.2,0.3-0.5,0.1-0.7C165.6,248.7,165.5,248.6,165.4,248.6z"/>
<path class="st4" d="M205.9,133c51.9,45.2,92.7,101.1,90,115.1c-4.9,26-39.2,27.6-44.4,22c-21-22.8-43.2-66.8-67.2-116
	C162.9,110.1,188.9,118.1,205.9,133z"/>
<path class="st5" d="M196.5,131.6c0,0.8-0.6,1.4-1.4,1.4c-0.8,0-1.4-0.6-1.4-1.4c0-0.8,0.6-1.4,1.4-1.4c0,0,0,0,0,0
	C195.9,130.2,196.5,130.8,196.5,131.6C196.5,131.5,196.5,131.5,196.5,131.6z M195.1,160.1c-0.8,0-1.4,0.6-1.4,1.4s0.6,1.4,1.4,1.4
	c0.8,0,1.4-0.6,1.4-1.4c0,0,0,0,0,0C196.5,160.7,195.9,160.1,195.1,160.1z M217.4,160.1c-0.8,0-1.4,0.6-1.4,1.4s0.6,1.4,1.4,1.4
	c0.8,0,1.4-0.6,1.4-1.4c0,0,0,0,0,0C218.8,160.7,218.2,160.1,217.4,160.1z M183.9,145.7c-0.8,0-1.4,0.6-1.4,1.4s0.6,1.4,1.4,1.4
	c0.8,0,1.4-0.6,1.4-1.4c0,0,0,0,0,0C185.3,146.4,184.7,145.7,183.9,145.7C183.9,145.7,183.9,145.7,183.9,145.7L183.9,145.7z
	 M206.3,145.7c-0.8,0-1.4,0.6-1.4,1.4c0,0.8,0.6,1.4,1.4,1.4c0.8,0,1.4-0.6,1.4-1.4c0,0,0,0,0,0C207.7,146.4,207,145.7,206.3,145.7
	L206.3,145.7L206.3,145.7z M217.4,189.9c-0.8,0-1.4,0.6-1.4,1.4c0,0.8,0.6,1.4,1.4,1.4c0.8,0,1.4-0.6,1.4-1.4c0,0,0,0,0,0
	C218.8,190.6,218.2,189.9,217.4,189.9L217.4,189.9L217.4,189.9z M239.8,189.9c-0.8,0-1.4,0.6-1.4,1.4c0,0.8,0.6,1.4,1.4,1.4
	c0.8,0,1.4-0.6,1.4-1.4c0,0,0,0,0,0C241.2,190.6,240.5,189.9,239.8,189.9L239.8,189.9L239.8,189.9z M261.6,190
	c-0.7,0.3-1.1,1-0.8,1.8c0.3,0.7,1,1.1,1.8,0.8c0.3-0.1,0.6-0.3,0.7-0.6C262.7,191.4,262.2,190.7,261.6,190L261.6,190z M206.3,175.6
	c-0.8,0-1.4,0.6-1.4,1.4s0.6,1.4,1.4,1.4c0.8,0,1.4-0.6,1.4-1.4c0,0,0,0,0,0C207.7,176.2,207,175.6,206.3,175.6L206.3,175.6z
	 M228.6,175.6c-0.8,0-1.4,0.6-1.4,1.4c0,0.8,0.6,1.4,1.4,1.4c0.8,0,1.4-0.6,1.4-1.4c0,0,0,0,0,0C230,176.2,229.4,175.6,228.6,175.6
	L228.6,175.6z M249.8,176.3c-0.1,0.2-0.2,0.5-0.2,0.7c0,0.8,0.6,1.4,1.4,1.4c0.2,0,0.4,0,0.6-0.1C251,177.6,250.4,177,249.8,176.3
	L249.8,176.3z M218,219.9c0.3,0.5,0.5,1,0.8,1.5c0-0.1,0-0.1,0-0.2C218.8,220.6,218.5,220.1,218,219.9z M239.8,219.8
	c-0.8,0-1.4,0.6-1.4,1.4s0.6,1.4,1.4,1.4c0.8,0,1.4-0.6,1.4-1.4c0,0,0,0,0,0C241.2,220.4,240.6,219.8,239.8,219.8
	C239.8,219.8,239.8,219.8,239.8,219.8L239.8,219.8z M262.2,219.8c-0.8,0-1.4,0.6-1.4,1.4s0.6,1.4,1.4,1.4c0.8,0,1.4-0.6,1.4-1.4
	c0,0,0,0,0,0C263.5,220.4,262.9,219.8,262.2,219.8C262.1,219.8,262.1,219.8,262.2,219.8L262.2,219.8z M284,219.9L284,219.9
	c-0.5,0.2-0.8,0.7-0.8,1.3c0,0.8,0.7,1.4,1.4,1.4c0.3,0,0.7-0.1,0.9-0.4C284.9,221.5,284.4,220.7,284,219.9L284,219.9z M228.6,205.5
	c-0.8,0-1.4,0.6-1.4,1.4c0,0.8,0.6,1.4,1.4,1.4c0.8,0,1.4-0.6,1.4-1.4c0,0,0,0,0,0C230,206.1,229.4,205.5,228.6,205.5
	C228.6,205.5,228.6,205.5,228.6,205.5L228.6,205.5z M251,205.5c-0.8,0-1.4,0.6-1.4,1.4c0,0.8,0.6,1.4,1.4,1.4c0.8,0,1.4-0.6,1.4-1.4
	c0,0,0,0,0,0C252.4,206.1,251.8,205.5,251,205.5L251,205.5z M274.7,206.6L274.7,206.6L274.7,206.6c-0.2-0.3-0.4-0.6-0.6-0.9
	c-0.7-0.4-1.5-0.1-1.9,0.5c-0.1,0.2-0.2,0.4-0.2,0.7c-0.1,0.8,0.5,1.4,1.3,1.5c0.8,0.1,1.4-0.5,1.5-1.3c0-0.1,0-0.2,0-0.2
	C274.7,206.8,274.7,206.7,274.7,206.6L274.7,206.6z M239.8,249.7c-0.8,0-1.4,0.6-1.4,1.4c0,0.8,0.6,1.4,1.4,1.4
	c0.8,0,1.4-0.6,1.4-1.4c0,0,0,0,0,0C241.2,250.3,240.6,249.7,239.8,249.7C239.8,249.7,239.8,249.7,239.8,249.7L239.8,249.7z
	 M262.2,249.7c-0.8,0-1.4,0.6-1.4,1.4c0,0.8,0.6,1.4,1.4,1.4c0.8,0,1.4-0.6,1.4-1.4c0,0,0,0,0,0
	C263.5,250.3,262.9,249.7,262.2,249.7C262.1,249.7,262.1,249.7,262.2,249.7L262.2,249.7z M284.5,249.7c-0.8,0-1.4,0.6-1.4,1.4
	c0,0.8,0.6,1.4,1.4,1.4c0.8,0,1.4-0.6,1.4-1.4c0,0,0,0,0,0C285.9,250.3,285.3,249.7,284.5,249.7
	C284.5,249.7,284.5,249.7,284.5,249.7L284.5,249.7z M228.6,235.4c-0.8,0-1.4,0.6-1.4,1.4s0.6,1.4,1.4,1.4c0.8,0,1.4-0.6,1.4-1.4
	c0,0,0,0,0,0C230,236,229.4,235.4,228.6,235.4C228.6,235.4,228.6,235.4,228.6,235.4L228.6,235.4z M251,235.4c-0.8,0-1.4,0.6-1.4,1.4
	s0.6,1.4,1.4,1.4c0.8,0,1.4-0.6,1.4-1.4c0,0,0,0,0,0C252.4,236,251.8,235.4,251,235.4L251,235.4z M273.3,235.4
	c-0.8,0-1.4,0.6-1.4,1.4s0.6,1.4,1.4,1.4c0.8,0,1.4-0.6,1.4-1.4c0,0,0,0,0,0C274.7,236,274.1,235.4,273.3,235.4
	C273.3,235.4,273.3,235.4,273.3,235.4L273.3,235.4z M251,265.3c-0.8,0-1.4,0.6-1.4,1.4c0,0.8,0.6,1.4,1.4,1.4s1.4-0.6,1.4-1.4
	c0,0,0,0,0,0C252.4,265.9,251.8,265.3,251,265.3z M273.3,265.3c-0.8,0-1.4,0.6-1.4,1.4c0,0.8,0.6,1.4,1.4,1.4s1.4-0.6,1.4-1.4
	c0,0,0,0,0,0C274.7,265.9,274.1,265.3,273.3,265.3C273.3,265.3,273.3,265.3,273.3,265.3L273.3,265.3z"/>
<path class="st1" d="M243,259.9c-3.8-5.9-7.4-12-11-18s-7.2-12.1-10.8-18.1c-7-12-13.5-24.3-19.7-36.7c-3.5-7-7.1-14-10.5-21.1
	c-0.1-0.2-0.5-0.1-0.4,0.2c3.3,8.3,6.8,16.4,10.5,24.4l-0.2-0.3c-0.8-1.1-1.7-2.3-2.5-3.4c-1.6-2.2-3.1-4.6-4.6-6.9
	c-0.1-0.1-0.2-0.1-0.3,0c-0.1,0.1-0.1,0.1-0.1,0.2c1.7,3.2,3.6,6.3,5.7,9.3c1,1.4,2.1,2.8,3.2,4.1l0.1,0.1c1.7,3.6,3.5,7.1,5.3,10.6
	c6.4,12.5,13.5,24.7,21.1,36.5c2.2,3.3,4.4,6.6,6.6,9.8s4.7,6.4,7.1,9.6C242.8,260.2,243.1,260.1,243,259.9z"/>
<path class="st3" d="M260.1,265c-9.8-14.1-4.9-42.2,6-109.4c1.5-9.3,72.2-10,71.1,0c-1.4,12.6-14,62.5-17.2,69.9
	C303.9,261.4,266.8,274.6,260.1,265z"/>
<path class="st3" d="M339.5,127.7c-2.7-21.4-6.7-26.5,0.6-45.8c4.8-12.7-1.2-21.1-11.8-11.8c-17.2,15.3-19.5,43.6-17.5,53.7
	L339.5,127.7z"/>
<path class="st1" d="M271.1,49l-25.6,86.2c-1,2.5,0.1,4.6,2.7,4.8l45,1.9c2.8-0.1,5.3-1.8,6.4-4.4l25.6-86.2c1-2.5-0.1-4.6-2.7-4.8
	l-45-1.9C274.7,44.7,272.2,46.4,271.1,49z"/>
<path class="st7" d="M276.4,49.2l-25.6,86.2c-1,2.5,0.1,4.6,2.7,4.8l45,1.9c2.8-0.1,5.3-1.8,6.4-4.4l25.6-86.2
	c1-2.5-0.1-4.7-2.7-4.8l-45-1.9C280.1,44.9,277.6,46.6,276.4,49.2z"/>
<path class="st1" d="M288.6,53.7c-0.1,2.1-2,3.7-4.1,3.6c-2.1-0.1-3.7-2-3.6-4.1c0.1-2.1,1.9-3.7,4-3.6
	C287.1,49.8,288.7,51.6,288.6,53.7C288.6,53.7,288.6,53.7,288.6,53.7z"/>
<path class="st3" d="M328.4,188.1c0,0,12.8-27.8,12.2-50.9c-0.5-16-5.3-50.6-47-73.7c-9.9-5.5-27.9-6.2-15,8.6
	c9.2,10.5,18.2,14.4,22.4,21.5c0,0-23,1.7-28.1,11.9c-2.3,4.5-8.2,17-11.4,27.4c1.6,1,3.2,1.8,4.9,2.6c0,0-3.9,9.9,1.8,25.1
	L328.4,188.1z"/>
<path class="st3" d="M337.7,122.1c-5.7-6.2-18-19-31.6-26c-15.2-7.8-46.6-18.7-52.2-7.4c-4.1,8.3,7.5,13.5,7.5,13.5
	s-13.9-1.8-16,6.5c-1.9,7.6,7.3,11,7.3,11s-8.6,0.4-9.1,8c-0.5,9.2,17.6,6.9,25.1,16.6C270.4,146.5,337.7,122.1,337.7,122.1z"/>
<path class="st1" d="M300.5,113.5c-6.3-4.9-23.5-12.4-38.9-11.6c-0.4,0-0.5,0.3-0.2,0.3c13.4,2.2,26.5,6,39,11.4
	C300.5,113.7,300.6,113.6,300.5,113.5z"/>
<path class="st1" d="M292.2,128.6c-5.9-3.7-23.9-10.6-39.5-9.2c-0.4,0-0.5,0.3-0.2,0.4c13.5,1.5,26.8,4.5,39.6,9
	C292.2,128.8,292.3,128.7,292.2,128.6z"/>
<path class="st4" d="M338.3,178.4l-82,23.2c0,0-16.4,53.7-6,67.2c11.1,14.4,62.7-7.9,73-39.3L338.3,178.4z"/>
<path class="st5" d="M308.2,191.3c0,0.8-0.6,1.4-1.4,1.4c-0.8,0-1.4-0.6-1.4-1.4c0-0.8,0.6-1.4,1.4-1.4c0,0,0,0,0,0
	C307.6,189.9,308.2,190.6,308.2,191.3C308.2,191.3,308.2,191.3,308.2,191.3z M329.2,189.9c-0.8,0-1.4,0.6-1.4,1.4
	c0,0.8,0.6,1.4,1.4,1.4c0.8,0,1.4-0.6,1.4-1.4c0,0,0,0,0,0C330.6,190.6,329.9,189.9,329.2,189.9
	C329.2,189.9,329.2,189.9,329.2,189.9L329.2,189.9z M262.2,219.8c-0.8,0-1.4,0.6-1.4,1.4s0.6,1.4,1.4,1.4c0.8,0,1.4-0.6,1.4-1.4
	c0,0,0,0,0,0C263.6,220.4,262.9,219.8,262.2,219.8C262.2,219.8,262.1,219.8,262.2,219.8L262.2,219.8z M284.5,219.8
	c-0.8,0-1.4,0.6-1.4,1.4s0.6,1.4,1.4,1.4c0.8,0,1.4-0.6,1.4-1.4c0,0,0,0,0,0C285.9,220.4,285.3,219.8,284.5,219.8
	C284.5,219.8,284.5,219.8,284.5,219.8L284.5,219.8z M306.9,219.8c-0.8,0-1.4,0.6-1.4,1.4s0.6,1.4,1.4,1.4c0.8,0,1.4-0.6,1.4-1.4
	c0,0,0,0,0,0C308.2,220.4,307.6,219.8,306.9,219.8C306.8,219.8,306.8,219.8,306.9,219.8L306.9,219.8z M273.3,205.5
	c-0.8,0-1.4,0.6-1.4,1.4c0,0.8,0.6,1.4,1.4,1.4c0.8,0,1.4-0.6,1.4-1.4c0,0,0,0,0,0C274.7,206.1,274.1,205.5,273.3,205.5
	C273.3,205.5,273.3,205.5,273.3,205.5L273.3,205.5z M295.7,205.5c-0.8,0-1.4,0.6-1.4,1.4c0,0.8,0.6,1.4,1.4,1.4
	c0.8,0,1.4-0.6,1.4-1.4c0,0,0,0,0,0C297.1,206.1,296.5,205.5,295.7,205.5C295.7,205.5,295.7,205.5,295.7,205.5L295.7,205.5z
	 M318,205.5c-0.8,0-1.4,0.6-1.4,1.4c0,0.8,0.6,1.4,1.4,1.4c0.8,0,1.4-0.6,1.4-1.4c0,0,0,0,0,0C319.4,206.1,318.8,205.5,318,205.5
	C318,205.5,318,205.5,318,205.5L318,205.5z M262.2,249.7c-0.8,0-1.4,0.6-1.4,1.4c0,0.8,0.6,1.4,1.4,1.4c0.8,0,1.4-0.6,1.4-1.4
	c0,0,0,0,0,0C263.6,250.3,262.9,249.7,262.2,249.7C262.2,249.7,262.1,249.7,262.2,249.7L262.2,249.7z M284.5,249.7
	c-0.8,0-1.4,0.6-1.4,1.4c0,0.8,0.6,1.4,1.4,1.4c0.8,0,1.4-0.6,1.4-1.4c0,0,0,0,0,0C285.9,250.3,285.3,249.7,284.5,249.7
	C284.5,249.7,284.5,249.7,284.5,249.7L284.5,249.7z M306.9,249.7c-0.8,0-1.4,0.6-1.4,1.4c0,0.8,0.6,1.4,1.4,1.4
	c0.8,0,1.4-0.6,1.4-1.4c0,0,0,0,0,0C308.2,250.3,307.6,249.7,306.9,249.7C306.8,249.7,306.8,249.7,306.9,249.7L306.9,249.7z
	 M251,235.4c-0.8,0-1.4,0.6-1.4,1.4s0.6,1.4,1.4,1.4c0.8,0,1.4-0.6,1.4-1.4c0,0,0,0,0,0C252.4,236,251.8,235.4,251,235.4z
	 M273.3,235.4c-0.8,0-1.4,0.6-1.4,1.4s0.6,1.4,1.4,1.4c0.8,0,1.4-0.6,1.4-1.4c0,0,0,0,0,0C274.7,236,274.1,235.4,273.3,235.4
	C273.3,235.4,273.3,235.4,273.3,235.4L273.3,235.4z M295.7,235.4c-0.8,0-1.4,0.6-1.4,1.4s0.6,1.4,1.4,1.4c0.8,0,1.4-0.6,1.4-1.4
	c0,0,0,0,0,0C297.1,236,296.4,235.4,295.7,235.4C295.7,235.4,295.6,235.4,295.7,235.4L295.7,235.4z M318,235.4
	c-0.8,0-1.4,0.6-1.4,1.4s0.6,1.4,1.4,1.4c0.8,0,1.4-0.6,1.4-1.4c0,0,0,0,0,0C319.4,236,318.8,235.4,318,235.4
	C318,235.4,318,235.4,318,235.4L318,235.4z M251,265.3c-0.8,0-1.4,0.6-1.4,1.4c0,0.8,0.6,1.4,1.4,1.4s1.4-0.6,1.4-1.4c0,0,0,0,0,0
	C252.4,265.9,251.8,265.3,251,265.3C251,265.3,251,265.3,251,265.3L251,265.3z M273.4,265.3c-0.8,0-1.4,0.6-1.4,1.4
	c0,0.8,0.6,1.4,1.4,1.4s1.4-0.6,1.4-1.4c0,0,0,0,0,0C274.7,265.9,274.1,265.3,273.4,265.3C273.3,265.3,273.3,265.3,273.4,265.3
	L273.4,265.3z"/>
<path class="st1" d="M259,220.3c9.1-2.1,18.2-4.6,27.2-7.2s18.1-5.1,27-8c5.1-1.6,10.1-3.1,15.1-4.9c0.1-0.1,0.1-0.3-0.1-0.2
	c-9.1,2.1-18.2,4.6-27.2,7.1s-18.1,5.1-27.1,7.9c-5.1,1.5-10.1,3.1-15.1,4.9C258.7,219.9,258.8,220.3,259,220.3z"/>
<path class="st1" d="M259.3,200.7c-1.3,0.1-2.5,0.4-3.8,0.6c-0.2,0.1-0.3,0.2-0.4,0.4c-1.4,4.8-2.4,9.7-3.4,14.6s-1.9,9.6-2.7,14.4
	c-0.4,2.6-0.8,5.2-1.1,7.8c-1.6,3.2-2.5,6.6-2.8,10.1c0,0.2,0.3,0.2,0.3,0c0.4-3.1,1.2-6.2,2.4-9.1c-0.8,6.4-0.6,12.8,0.5,19.2
	c0,0,0.1,0,0.1,0c-1.6-9.5,0.8-19.3,2.3-28.6c0.8-4.7,1.7-9.3,2.6-14s2-9.2,2.8-13.9c1.1-0.4,2.2-0.8,3.2-1.3
	C259.5,201,259.4,200.7,259.3,200.7z"/>
<path class="st3" d="M175.7,117.5c-0.4,2.7-11.9,20.9-24.1,21.2c-4,0.1-5.5-21.6-5.5-21.6l-0.5-1.6l-6.6-22l25.1-18.8l3.6-2.5
	c0,0,1.4,6.2,3.1,13.8c0.1,0.4,0.2,0.7,0.2,1.1s0.2,0.8,0.3,1.2c0.3,1.1,0.5,2.3,0.8,3.5c0.2,0.9,0.4,1.8,0.5,2.7s0.4,1.9,0.5,2.8
	C174.9,106.7,175.8,116.3,175.7,117.5z"/>
<path class="st1" d="M175.4,113.4c-17,3-26.8-1-31.8-4.6L139,93.5l25.1-18.8l3.6-2.5c0,0,1.4,6.1,3.1,13.8c0.1,0.3,0.2,0.7,0.2,1.1
	s0.2,0.8,0.3,1.2c0.3,1.1,0.5,2.3,0.8,3.5c0.2,0.9,0.4,1.8,0.5,2.7s0.4,1.8,0.6,2.8C174.3,103.3,175.1,109.4,175.4,113.4z"/>
<path class="st3" d="M187.8,57.4c7.6,39.7-15.3,48.7-23.8,50.4c-7.8,1.5-34.4,5.6-46.1-33.1s4.4-54.8,21.9-59.1
	S180.1,17.7,187.8,57.4z"/>
<path class="st1" d="M180.3,49.8c-0.9,0-1.9-0.1-2.8-0.2c-1,0.1-2-0.2-2.8-0.7c-0.5-0.5-0.6-1.2-0.2-1.7c0.8-1,2.1-1.5,3.4-1.3
	c1.3,0,2.6,0.5,3.5,1.4c0.6,0.6,0.6,1.6-0.1,2.2C181,49.6,180.6,49.8,180.3,49.8z"/>
<path class="st1" d="M151.9,52.2c0.9-0.2,1.8-0.5,2.6-0.9c1-0.2,1.9-0.7,2.5-1.4c0.3-0.6,0.2-1.3-0.2-1.7c-1-0.8-2.4-0.9-3.6-0.4
	c-1.2,0.4-2.3,1.2-3,2.2c-0.4,0.7-0.1,1.7,0.6,2.1C151.2,52.2,151.5,52.2,151.9,52.2z"/>
<path class="st1" d="M160.5,63.3c0-0.1-0.2,0.2-0.2,0.3c0.5,2.7,0.6,5.9-1.8,7.2c-0.1,0,0,0.2,0.1,0.2
	C161.5,70,161.4,65.8,160.5,63.3z"/>
<path class="st1" d="M157.6,60.8c-4.4,0.3-3.5,9.1,0.6,8.9S161.3,60.5,157.6,60.8z"/>
<path class="st1" d="M155.9,61.4c-0.7,0.6-1.4,1.5-2.3,1.7s-2-0.6-2.8-1.4c-0.1-0.1-0.1,0-0.1,0.1c0.1,1.7,1,3.4,2.8,3.4
	c1.7,0.1,2.7-1.6,3-3.3C156.6,61.6,156.2,61.2,155.9,61.4z"/>
<path class="st1" d="M176.4,60.5c0-0.1,0.2,0.1,0.2,0.2c0.2,2.7,0.9,5.8,3.5,6.5c0.1,0,0.1,0.2,0,0.2
	C177.1,67.3,176.1,63.1,176.4,60.5z"/>
<path class="st1" d="M178.5,57.4c4.4-0.8,5.7,7.9,1.7,8.7S174.8,58.1,178.5,57.4z"/>
<path class="st1" d="M180.4,57.7c0.8,0.4,1.6,1.1,2.4,1s1.5-1.1,2-2.2c0-0.1,0.1,0,0.1,0.1c0.3,1.7,0,3.5-1.5,4.1s-2.7-0.8-3.4-2.4
	C179.9,58,180.1,57.5,180.4,57.7z"/>
<path class="st1" d="M163.6,84.5c0.7,0.6,1.4,1.4,2.4,1.5c1-0.1,2-0.4,2.9-0.9c0,0,0.1,0,0.1,0c0,0,0,0.1,0,0.1
	c-0.7,1.1-2,1.8-3.4,1.7c-1.2-0.2-2.1-1.1-2.3-2.3C163.3,84.5,163.5,84.5,163.6,84.5z"/>
<path class="st1" d="M173.9,73.3c0,0,1,4,1.3,5.9c0,0.2-0.4,0.3-1.1,0.4c0,0-0.1,0-0.1,0c-3.3,1-6.9,0.1-9.3-2.4
	c-0.1-0.2,0.1-0.4,0.3-0.3c2.7,1.4,5.7,1.9,8.6,1.4c0.1-0.6-2-6.8-1.7-6.9c1.5,0,3,0.1,4.5,0.5c-1.9-8.4-5.2-16.5-7-24.9
	c0-0.1,0-0.3,0.2-0.3s0.3,0,0.3,0.2c4,8.2,6.4,17.8,8.6,26.5C178.9,74.6,174.7,73.6,173.9,73.3z"/>
<path class="st1" d="M119.5,75c10-1.1,10.4-32.1,10.4-35.9c0.1,2.4,0.8,15.1,1.8,15.5c1.1-0.1,2.1-0.4,3.1-0.8l0,0
	c-0.1-1.5-0.1-3,0-4.5c0-0.7,0.4,1.5,1,4.2c0.6-0.2,1.1-0.4,1.8-0.7c-0.4-3.2-0.3-6.5,0.2-9.7c0.2-1.2,0.9,4.1,2.4,8.7
	c6.8-2.4,16.5-5.6,25.8-6.7c2.5-0.3,4.6-0.4,6.5-0.5c-0.3-3.7-1-7.7-0.7-6.8c0.9,2.2,1.7,4.5,2.1,6.8c1,0,2,0,2.9,0
	c-0.2-5.3-3.3-13.5-2.4-12.3c2.8,3.8,4.9,8,6.1,12.6c3.6,0.4,4.7,1,4.7,0.1c0-1.7-3.2-16.3-15.5-26.2C156.3,8,131.2,7.1,118.6,26.3
	c0,0-11,8.5-11.8,20.8S113.7,75.6,119.5,75z"/>
<path class="st5" d="M155.9,78.5c-6.9,0.2-12.6-5.2-12.8-12.1c-0.2-6.9,5.2-12.6,12.1-12.8c5.7-0.2,10.8,3.5,12.3,9l0,0
	c1.9,6.6-1.9,13.5-8.5,15.4C158,78.3,156.9,78.4,155.9,78.5L155.9,78.5z M155.2,55.3c-0.9,0-1.8,0.2-2.6,0.4
	c-5.7,1.6-9.1,7.6-7.4,13.3s7.6,9.1,13.3,7.4c5.7-1.6,9.1-7.6,7.4-13.3C164.5,58.3,160.1,55.1,155.2,55.3z"/>
<path class="st5" d="M184.1,74.1c-4.8,0.1-9.2-4.6-10.2-11c-0.5-3.1-0.1-6.2,1.3-9c1.6-4,6.2-5.8,10.1-4.2c1.2,0.5,2.2,1.2,3,2.2
	c2.1,2.3,3.5,5.1,3.9,8.2c1,6.8-2.3,12.9-7.3,13.7C184.7,74.1,184.4,74.1,184.1,74.1z M182.1,51c-0.2,0-0.4,0-0.6,0.1
	c-2.1,0.4-3.9,1.8-4.8,3.8c-1.2,2.5-1.6,5.3-1.1,8c0.9,5.9,5,10.2,9.1,9.5c4.1-0.6,6.8-5.9,5.9-11.8c-0.4-2.7-1.6-5.3-3.4-7.3
	C185.9,51.9,184.1,51,182.1,51L182.1,51z"/>
<path class="st5" d="M167.3,64.1L166,63c1.6-1.8,5.6-4.6,9.1-1.8l-1,1.3C171,60,167.4,63.9,167.3,64.1z"/>
<path class="st5" d="M115.4,75.5l-1.6-0.5c0.2-0.7,2.6-7.2,6.1-8.3c3.4-1.1,23.2-2.4,24.2-2.4l0.1,1.7c-6.4,0.3-21.2,1.5-23.8,2.3
	C118.1,69,116,73.8,115.4,75.5z"/>
<path class="st3" d="M126,75.5c0,0-10.1-11.6-15.4-7.9c-5.4,3.7,3.1,21.2,10.1,23c3.6,1.2,7.5-0.7,8.6-4.3c0-0.1,0.1-0.2,0.1-0.3
	L126,75.5z"/>
<path class="st1" d="M113.1,72.5c-0.1,0-0.1,0.1-0.1,0.1c0,0,0,0.1,0.1,0.1c4.9,1.4,7.8,5.5,10,9.8c-1.6-1.6-3.6-2.3-5.7-0.4
	c-0.1,0.1,0,0.3,0.1,0.2c1.6-0.7,3.5-0.3,4.8,1c1,1.1,1.9,2.2,2.6,3.5c0.3,0.4,1,0.1,0.8-0.4v-0.1C125.1,80.3,119.6,72.4,113.1,72.5
	z"/>
<path class="st1" d="M117.7,22.9c-0.2,3-14.2,10.1-24.3,2.5c-9.9-7.5-5.9-22.5,7.9-21.1C110,5.3,118,16.6,117.7,22.9z"/>
<path class="st1" d="M88.3,12c1.5-3.6,4.2-6.6,7.7-8.5c3.2-1.9,7.2-1.9,10.5,0c3.3,1.8,5.8,4.9,7.7,8.2c1,1.7,1.8,3.5,2.4,5.3
	c0.7,1.8,1.1,3.8,1.1,5.8c0.4-2,0.4-4.1-0.1-6.1c-0.4-2-1-4-1.9-5.9c-1.7-3.9-4.6-7.2-8.2-9.4c-1.9-1.1-4.1-1.6-6.3-1.5
	c-2.2,0.1-4.3,0.8-6.1,2C91.5,4.3,89.1,7.9,88.3,12z"/>
<path class="st3" d="M103.8,309.8l-0.7,0.2l0,0C103.3,309.9,103.6,309.9,103.8,309.8z"/>
<path class="st2" d="M39.3,297.2c-0.1,0.5-0.2,1-0.2,1.5c0-0.1,0-0.2,0-0.3C39.2,297.9,39.2,297.6,39.3,297.2z"/>
<path class="st2" d="M39.3,297.2c-0.1,0.5-0.2,1-0.2,1.5c0-0.1,0-0.2,0-0.3C39.2,297.9,39.2,297.6,39.3,297.2z"/>
<path class="st2" d="M106.9,316.8L106.9,316.8c-0.7,0.2-1.4,0.3-2.1,0.5L106.9,316.8z"/>
<path class="st8" d="M39.3,297.2c-0.1,0.5-0.2,1-0.2,1.5c0-0.1,0-0.2,0-0.3C39.2,297.9,39.2,297.6,39.3,297.2z"/>
</svg>
