<svg id="Layer_1" data-name="Layer 1" xmlns="http://www.w3.org/2000/svg" viewBox="0 0 150 80"><defs><style>.cls-1,.cls-2{fill:#9f00cd;}.cls-2{opacity:0.5;}.cls-3{fill:#ffaba1;}.cls-4{fill:#1a2e35;}.cls-5{fill:#ffc800;}.cls-6{opacity:0.1;}.cls-7{fill:#375a64;}.cls-8{fill:#a8a8a8;}.cls-9{fill:#c8c8c8;}.cls-10{fill:#fff;}.cls-11{fill:#ff9cbf;}</style></defs><path class="cls-1" d="M61.64,77.61A37.2,37.2,0,1,1,98.83,40.42,37.24,37.24,0,0,1,61.64,77.61ZM61.64,5A35.38,35.38,0,1,0,97,40.42,35.42,35.42,0,0,0,61.64,5Z"/><circle class="cls-1" cx="61.64" cy="40.42" r="32.12" transform="translate(-10.53 25.42) rotate(-21.51)"/><circle class="cls-2" cx="61.64" cy="40.42" r="32.12" transform="translate(-10.53 25.42) rotate(-21.51)"/><path class="cls-3" d="M63,36.48c2.65,3.93,16.53,22.73,24,22.45,9.07-.35,20.15-4,24.76-7.09,2.58-1.76-6.36-14.3-8.88-13A104.57,104.57,0,0,1,88,44.12c-1.59.35-13.17-8.3-20.13-12.09C61.65,28.62,61.07,33.71,63,36.48Z"/><path class="cls-3" d="M111.28,52c1.71-.71,10.75-5.14,12.61-6.72s6.87-6.5,5.8-8-2.64-.22-2.64-.22,1.79-2.41.58-3.87-3.61.68-3.61.68,1.65-2.61.34-4S121,31,121,31s1.63-2.31.07-3c-1.87-.8-4.38,3.81-6.56,5.4C114,33.78,104,40,104,40Z"/><path class="cls-4" d="M121.18,30.8c-1.85,3.39-3.25,4.55-6.57,6.39-.07,0,0,.14,0,.11,3.42-1.51,5.38-2.71,6.7-6.42C121.42,30.7,121.27,30.64,121.18,30.8Z"/><path class="cls-4" d="M124.16,33.53a20.34,20.34,0,0,1-7.08,6.81s0,.12.06.09c3.45-1.87,5.38-3.12,7.17-6.76C124.4,33.51,124.26,33.38,124.16,33.53Z"/><path class="cls-4" d="M126.88,37.1a18.37,18.37,0,0,1-7.5,6.26.07.07,0,1,0,.05.13A13,13,0,0,0,127,37.18C127.08,37,127,36.9,126.88,37.1Z"/><path class="cls-3" d="M100.3,41.2a47.3,47.3,0,0,1,2.93-6.34c1.19-1.82,8.15-7,9.34-5.52,1.54,1.86-1.89,5.62-3.81,7.24,0,0,3.58,4.29,1.7,7.52S100.3,41.2,100.3,41.2Z"/><path class="cls-4" d="M112.83,30c.18,2.71-2.47,4.67-4.22,6.39a.22.22,0,0,0,0,.36c1.38,1.9,2.77,5,2,7.32a.05.05,0,1,0,.1,0c1.21-2.38.1-5.52-1.55-7.51,1.82-1.72,4.4-3.81,3.69-6.6C112.85,30,112.83,30,112.83,30Z"/><path class="cls-5" d="M99.76,39.53l8,16s-17.53,6.78-24.35,3S66,41.61,63.84,38.62c-4.8-6.54-1-10,4.33-6.63S86.78,43.47,87.63,43.7,99.76,39.53,99.76,39.53Z"/><path class="cls-6" d="M81.9,57.57c-6.77-4.67-16-16.17-18.06-19-4.36-5.94-1.66-9.3,2.89-7.38Z"/><path class="cls-7" d="M103.44,56c-1-1.76-1.94-3.58-2.86-5.4s-1.84-3.64-2.71-5.48c-.49-1-1-2.08-1.45-3.14a0,0,0,0,1,0,0c1,1.76,1.94,3.58,2.87,5.39s1.84,3.63,2.74,5.47c.5,1,1,2.08,1.45,3.14C103.55,56,103.47,56,103.44,56Z"/><path class="cls-5" d="M78.79,67.58a32.14,32.14,0,0,1-37-1.93c1.76-9.13,6.07-24.71,15-35,2.5-2.87,9.3-2,10.09-.88C72.19,37.54,76.92,57.76,78.79,67.58Z"/><polygon class="cls-8" points="71.51 74.22 91.14 78.83 101.37 51.91 81.74 47.31 71.51 74.22"/><polygon class="cls-9" points="72.47 74.45 92.11 79.05 102.33 52.14 82.7 47.53 72.47 74.45"/><path class="cls-10" d="M90.27,62.68a2.19,2.19,0,0,1-2.53,1.42,1.76,1.76,0,0,1-1.29-2.31A2.19,2.19,0,0,1,89,60.36,1.77,1.77,0,0,1,90.27,62.68Z"/><path class="cls-3" d="M53.23,34.35c-5.68,7.91-17.89,26-14.29,30.13,5.92,6.86,20.39,12.86,24.92,14.22,2,.59,9-13.63,7.11-14.79-2.21-1.41-16.38-7-16.45-7.66S57.09,45.78,58,38.11C59.05,28.58,55.59,31.06,53.23,34.35Z"/><path class="cls-3" d="M63.85,62.91s5.95-1.75,9.9-2.71c2.21-.53,6.07-1.11,7.87-.76,2.69.52,13.61,4.41,12.73,7.08-.81,2.41-9.77-2.12-9.77-2.12s9.45,3.77,8,6.5-10.94-3.73-10.94-3.73,9.61,4.09,7.62,6.67C87.7,75.78,78.82,70.4,78.82,70.4S87.06,74,85.6,76C84,78.33,75.47,73.88,75.47,73.88c-4.6,4.62-8.59,5.24-11.61,4.82C63.15,78.6,63.85,62.91,63.85,62.91Z"/><path class="cls-4" d="M81.84,63.07c7.17,2.25,10,5.55,9.9,5.48a44.07,44.07,0,0,0-7.13-4.07c-1.09-.5-1.71-.86-2.79-1.37C81.79,63.1,81.81,63.06,81.84,63.07Z"/><path class="cls-4" d="M79.52,66.77a25.45,25.45,0,0,1,8.2,3.83c.09.07,0,.09-.07,0-1.36-.68-6.76-3.23-8.15-3.84C79.48,66.79,79.49,66.76,79.52,66.77Z"/><path class="cls-4" d="M77.3,69.81A18.87,18.87,0,0,1,83.56,73c.1.07,0,.1-.09,0-2.06-1.09-3.67-2-6.2-3.12A0,0,0,0,1,77.3,69.81Z"/><path class="cls-5" d="M66.61,61.71l-8,17s-19-10.25-20.45-15.07,11.5-26,15.43-30.31,5.2-2.55,5.09,2.38S54.71,56,54.81,56.3,66.61,61.71,66.61,61.71Z"/><path class="cls-4" d="M56.22,49c.26-1.15.51-2.3.76-3.46.12-.6.25-1.2.38-1.8.06-.27.12-.55.19-.82s.07-.28.09-.42a2.52,2.52,0,0,1,.14-.54,0,0,0,0,1,.06,0c0,.31,0,.19,0,.43a3.38,3.38,0,0,0-.09.54c0,.28-.09.56-.13.84-.09.57-.2,1.14-.31,1.71,0,.07,0,.15,0,.22l0-.06c.21-.62.43-1.23.65-1.84,0,0,.05,0,0,0-.15.64-.32,1.26-.52,1.88-.12.36-.26.71-.4,1.06-.15.76-.3,1.52-.46,2.28-.49,2.34-1,4.7-1.68,7,1,.46,2,.87,3,1.33s2,.93,3,1.4,2,.94,3,1.43l1.4.71c.51.26,1,.57,1.5.82.05,0,0,.1,0,.08-.53-.25-1.1-.43-1.64-.66l-1.42-.62c-1-.45-2-.91-3-1.38l-3-1.4c-1-.48-1.95-1-2.94-1.48a.16.16,0,0,1-.06-.08.1.1,0,0,1,0-.13C55.1,53.73,55.69,51.4,56.22,49Z"/><path class="cls-4" d="M58.68,68.42c.59-1.23,3-6.15,3.7-7.32,0,0,0,0,0,0-.44,1.24-2.67,6.16-3.27,7.4a73.64,73.64,0,0,1-3.76,7.28s-.1,0-.08,0C56.26,73.25,57.51,70.85,58.68,68.42Z"/><path class="cls-4" d="M45,70.3c.43.25.85.56,1.26.85L47.5,72c.84.59,1.69,1.19,2.58,1.69.05,0,0,.11,0,.08-.9-.52-1.83-1-2.71-1.57a13.41,13.41,0,0,1-2.42-1.88S44.91,70.28,45,70.3Z"/><path class="cls-3" d="M66,36c-2.09.75-6.16-2.12-7.92-4.62-.12-.17-.06-2.13-.1-4.51,0-1.45-.09-3.06-.26-4.52l9.44,1.18a23.29,23.29,0,0,0-.25,5.73,3.41,3.41,0,0,0,.13.59.3.3,0,0,1,0,.1C67.38,31,68,35.24,66,36Z"/><path class="cls-4" d="M66.91,29.23a2.71,2.71,0,0,0,.11.51,12.57,12.57,0,0,1-9.08-4.28c0-1.05-.1-2.13-.22-3.14l9.44,1.18A23.29,23.29,0,0,0,66.91,29.23Z"/><path class="cls-3" d="M54.54,12.23c-.41,3.4,3,12.42,5.61,14.09,3.87,2.42,9.37,1.74,11.21-2.71s-2.79-16-5.69-17.43C61.4,4.07,55.15,7.2,54.54,12.23Z"/><path class="cls-4" d="M64.1,16s0,0,0,.07c.24.6.42,1.33-.06,1.73,0,0,0,.05,0,0C64.67,17.5,64.42,16.54,64.1,16Z"/><path class="cls-4" d="M63.32,15.57c-1,.29-.36,2.28.57,2S64.16,15.33,63.32,15.57Z"/><path class="cls-4" d="M67.81,14.69s0,0,.06,0c.18.62.49,1.3,1.12,1.33a0,0,0,0,1,0,0C68.28,16.22,67.88,15.31,67.81,14.69Z"/><path class="cls-4" d="M68.15,13.86c1-.39,1.69,1.57.79,1.94S67.34,14.2,68.15,13.86Z"/><path class="cls-4" d="M62.24,14.92c.25-.16.45-.35.68-.53s.49-.33.6-.66a.44.44,0,0,0-.23-.49,1.08,1.08,0,0,0-1.09.24,1.59,1.59,0,0,0-.67.94A.48.48,0,0,0,62.24,14.92Z"/><path class="cls-4" d="M68.59,12.61a6.06,6.06,0,0,1-.85.05,1.36,1.36,0,0,1-.89-.11.44.44,0,0,1-.14-.52,1.11,1.11,0,0,1,1-.54,1.64,1.64,0,0,1,1.12.29A.47.47,0,0,1,68.59,12.61Z"/><path class="cls-4" d="M65.53,21.78c.2.09.41.25.64.19a1.67,1.67,0,0,0,.61-.37s0,0,0,0a.89.89,0,0,1-.68.59.69.69,0,0,1-.66-.39S65.5,21.76,65.53,21.78Z"/><path class="cls-4" d="M65.58,19.72a2.23,2.23,0,0,0,1.71.48,2.53,2.53,0,0,0,.76-.21.59.59,0,0,0,.14-.06l.13-.07a.15.15,0,0,0,.08-.17h0l0-.06h0l0-.06c-.14-.48-.42-1.18-.42-1.18.2,0,1.22.14,1.12-.1a32.62,32.62,0,0,0-2.87-6.1c0-.06-.13,0-.11.05.68,2,1.7,3.8,2.42,5.77a3.57,3.57,0,0,0-1.09,0c-.06,0,.57,1.35.61,1.57v0a3.08,3.08,0,0,1-2.39,0C65.57,19.63,65.53,19.68,65.58,19.72Z"/><path class="cls-4" d="M67.71,19.92a2.57,2.57,0,0,1-.8,1.06,1.21,1.21,0,0,1-.68.24c-.53,0-.67-.45-.69-.87a3.08,3.08,0,0,1,.06-.66A3.41,3.41,0,0,0,67.71,19.92Z"/><path class="cls-11" d="M66.91,21a1.21,1.21,0,0,1-.68.24c-.53,0-.67-.45-.69-.87A1.23,1.23,0,0,1,66.91,21Z"/><path class="cls-4" d="M57.72,19.31c1.56-.55.29-4.39.29-4.39s2.29-1.14,2.52-4.8c0,0,3.68,1.05,6.16-.18,3.89-1.93,2.24-7.22.39-7.87-2.62-.91-5.85,2.45-5.85,2.45s-6.33.06-6.93,4.53a3.14,3.14,0,0,0-1.93,3.81C53,15.8,56.56,19.73,57.72,19.31Z"/><path class="cls-4" d="M57.57,15.54A5.57,5.57,0,0,0,60.15,13a4.22,4.22,0,0,0-.1-3.85c0-.07.06-.12.09-.06a4.82,4.82,0,0,1,.48,4.08,3.92,3.92,0,0,1-3,2.51A.06.06,0,0,1,57.57,15.54Z"/><path class="cls-4" d="M51.68,11.23A3.84,3.84,0,0,1,54.6,9.15c.07,0,.1.1,0,.11a3.53,3.53,0,0,0-2.56,2.52,4.43,4.43,0,0,0,.71,3.3,8.88,8.88,0,0,0,4.87,4.09s0,.07,0,.06a8.86,8.86,0,0,1-5.42-4.46A4.4,4.4,0,0,1,51.68,11.23Z"/><path class="cls-4" d="M61.13,4.76a4.12,4.12,0,0,1,1.75-2.37,5,5,0,0,1,3.51-.64,2.84,2.84,0,0,1,2.08,1.89A5,5,0,0,1,68.27,7a0,0,0,1,1,0,0,5,5,0,0,0,0-3,2.63,2.63,0,0,0-2.1-1.78c-1.9-.26-4.33.58-4.94,2.61C61.21,4.87,61.11,4.83,61.13,4.76Z"/><path class="cls-3" d="M57.88,19.47S55.19,16.89,54,17.9s1.23,5.06,3,5.34a1.66,1.66,0,0,0,2-1.31Z"/><path class="cls-4" d="M54.7,19.05s0,0,0,0a4.19,4.19,0,0,1,2.64,2.15.91.91,0,0,0-1.39,0s0,.07,0,.06a1,1,0,0,1,1.17.13,4.34,4.34,0,0,1,.7.78c.08.09.25,0,.19-.11l0,0C57.78,20.66,56.27,18.88,54.7,19.05Z"/><path class="cls-10" d="M67,29.72l-2,5.55-7-6.63-1.83,2.29s7,10.69,7.06,10.19l2.06-4.78,3.36,3.14-.57-8.18Z"/><path class="cls-4" d="M68.6,35.42c-.14-1.35-.25-2.71-.45-4.05,0,0-.08-.06-.09,0-.22,1.32.34,6.47.38,7.71h0c-.14-.14-3.11-2.76-3.14-2.72-.46.77-2,4.24-2.07,4.56-1.12-1.7-5.37-7.86-6.67-9.46,0,0-.11,0-.08,0,1,1.8,6.63,10.11,6.71,10.08a54.2,54.2,0,0,0,2.16-5,34,34,0,0,0,3.52,3.35A44.09,44.09,0,0,0,68.6,35.42Z"/></svg>