<?xml version="1.0" encoding="utf-8"?>
<!-- Generator: Adobe Illustrator 26.2.1, SVG Export Plug-In . SVG Version: 6.00 Build 0)  -->
<svg version="1.1" id="Layer_1" xmlns="http://www.w3.org/2000/svg" xmlns:xlink="http://www.w3.org/1999/xlink" x="0px" y="0px"
	 viewBox="0 0 2500 2500" style="enable-background:new 0 0 2500 2500;" xml:space="preserve">
<style type="text/css">
	.st0{fill:#FFFFFF;}
</style>
<g>
	<path class="st0" d="M2277.5,1016.9c0-41.3-32.5-75-73.8-75c-40,0-73.1,33.1-73.1,75c0,41.2,32.5,75,73.1,75
		C2245,1092.5,2277.5,1058.8,2277.5,1016.9z M2203.8,1071.2c-28.1,0-50-23.8-50-54.4c0-30,21.9-53.8,50-53.8
		c28.8,0,51.2,23.8,51.2,53.8C2255,1047.5,2232.5,1071.2,2203.8,1071.2z"/>
	<path class="st0" d="M2223.8,1023.1c3.8-1.2,11.9-6.9,11.9-18.8c0-14.4-9.4-23.1-25-23.1h-33.1v70.6h21.9v-23.8h5.6l10,23.8h23.8
		l-13.1-24.4C2224.4,1023.8,2223.8,1023.1,2223.8,1023.1L2223.8,1023.1z M2205,1013.1h-5.6v-16.9h5.6c5,0,7.5,2.5,7.5,8.1
		C2213.1,1010,2210,1013.1,2205,1013.1z"/>
	<circle class="st0" cx="653.8" cy="1018.8" r="56.2"/>
	<path class="st0" d="M712.5,1111.9H455V1095c0-33.1,33.1-33.8,50-33.8c19.4,0,28.1,1.9,28.1,1.9v-91.2c0,0-17.5-2.5-41.2-2.5
		c-53.8,0-153.1,15-153.1,128.8v14.4h-46.9v84.4h46.9V1375H295v84.4h211.2V1375H455v-178.1h140.6V1375h-43.8v84.4h204.4V1375h-43.8
		V1111.9z M1150,1111.9H965.6v84.4h31.2l-40,125c-7.5,20.6-9.4,45.6-9.4,45.6H945c0,0-1.9-25-9.4-45.6l-40-125h31.2v-84.4H742.5
		v84.4h38.8l96.2,262.5H1015l96.2-262.5h38.8V1111.9z M1491.2,1271.2c0-96.2-58.1-167.5-161.2-167.5
		c-111.9,0-180.6,79.4-180.6,181.2c0,92.5,66.9,181.9,190.6,181.9c93.8,0,149.4-48.8,149.4-48.8l-42.5-80.6c0,0-46.2,33.1-97.5,33.1
		c-36.9,0-71.9-19.4-80.6-63.8h220C1488.1,1306.2,1491.2,1282.5,1491.2,1271.2L1491.2,1271.2z M1271.2,1242.5
		c6.2-26.9,22.5-51.2,55.6-51.2c25.6,0,43.8,23.8,43.8,51.2H1271.2z M1984.4,1191.9h-1.3c0,0,1.3-6.9,1.3-17.5v-18.1
		c0-31.9-17.5-44.4-49.4-44.4h-109.4v84.4h32.5c9.4,0,15,5.6,15,15V1375h-46.9v84.4h210.6V1375H1990v-50.6
		c0-63.1,31.2-104.4,95.6-104.4c14.4,0,23.8,1.9,23.8,1.9v-114.4c0,0-6.9-1.2-13.8-1.2C2043.1,1105.6,1999.4,1144.4,1984.4,1191.9
		L1984.4,1191.9z M1676.3,1191.9h-1.3c0,0,1.3-6.9,1.3-17.5v-18.1c0-31.9-17.5-44.4-49.4-44.4h-109.4v84.4h32.5c9.4,0,15,5.6,15,15
		V1375h-46.9v84.4h210.6V1375h-46.9v-50.6c0-63.1,31.2-104.4,95.6-104.4c14.4,0,23.7,1.9,23.7,1.9v-114.4c0,0-6.9-1.2-13.8-1.2
		C1734.4,1105.6,1690.6,1144.4,1676.3,1191.9L1676.3,1191.9z"/>
</g>
<g id="elUcls.tif">
	
		<image style="overflow:visible;" width="359" height="360" id="Layer_0_00000129911809941306725050000000261582228370998968_" xlink:href="DC8BBDEBEA36634C.png"  transform="matrix(5.5066 0 0 5.372 249.5158 284.5791)">
	</image>
</g>
</svg>
