<?xml version="1.0" encoding="utf-8"?>
<!-- Generator: Adobe Illustrator 26.2.1, SVG Export Plug-In . SVG Version: 6.00 Build 0)  -->
<svg version="1.1" id="Layer_1" xmlns="http://www.w3.org/2000/svg" xmlns:xlink="http://www.w3.org/1999/xlink" x="0px" y="0px"
	 viewBox="0 0 1024 1024" style="enable-background:new 0 0 1024 1024;" xml:space="preserve">
<style type="text/css">
	.st0{fill:#FFFFFF;}
	.st1{fill-rule:evenodd;clip-rule:evenodd;fill:url(#SVGID_1_);}
	.st2{fill-rule:evenodd;clip-rule:evenodd;fill:#FFFFFF;}
</style>
<path class="st0" d="M362.3,544.5c-18.5,0-30.7-14-34.1-19.4c4.4-34.3,17.2-45.2,34.1-45.2c16.7,0,29.7,13.1,29.7,32.3
	S379,544.5,362.3,544.5z M362.3,458.8c-30.1,0-47,19.2-51.9,39.1c-5.5-10.1-9.5-23.6-12.7-36.2H256v50.8c0,18.4-8.6,32-25.3,32
	s-26.4-13.6-26.4-32l0.2-50.8h-24v50.8c0,14.8,4.9,28.3,13.9,37.9c9.2,9.9,21.8,15.1,36.3,15.1c29,0,49.2-21.8,49.2-52.9v-34.1
	c3,11.2,10.2,32.8,24,51.7L291.1,602h24.4l8.5-50.9c2.8,2.3,5.8,4.3,8.9,6.1c8.2,5.1,17.6,7.9,27.2,8.2c0,0,1.5,0.1,2.3,0.1
	c29.9,0,53.7-22.7,53.7-53.3S392.2,458.8,362.3,458.8L362.3,458.8z M707.6,472.6v-10.9H684v100.5h23.9v-39.4
	c0-24.2,2.3-41.6,35.4-39.4v-23C727.9,459.4,715.8,462.5,707.6,472.6L707.6,472.6z M541.6,461.7L524.3,532l-18.5-70.3h-30.4
	L456.8,532l-17.3-70.3h-24.2l26.5,100.6h28.7l20-71.4l19.8,71.4h28.7l28.1-100.6L541.6,461.7z M619.8,544.6
	c-17,0-29.8-13.1-29.8-32.4s12.8-32.3,29.8-32.3c16.8,0,29.8,13.1,29.8,32.3S636.6,544.6,619.8,544.6L619.8,544.6z M619.8,458.8
	c-30.1,0-53.7,22.8-53.7,53.4s23.6,53.2,53.7,53.2c29.9,0,53.7-22.7,53.7-53.2S649.8,458.8,619.8,458.8L619.8,458.8z M777.6,512.8
	h5.5l33.4,49.5h27l-38.4-54.8c18.6-7.1,31.1-25.7,31.1-45.8h-23.8c0,21.7-17.5,29.9-34.8,29.9V422h-24v140.3h23.9L777.6,512.8z"/>
<g>
	<g>
		<linearGradient id="SVGID_1_" gradientUnits="userSpaceOnUse" x1="795.7831" y1="774.0435" x2="213.0837" y2="246.1563">
			<stop  offset="0" style="stop-color:#FEC053"/>
			<stop  offset="0.3273" style="stop-color:#F2203E"/>
			<stop  offset="0.6485" style="stop-color:#B729A8"/>
			<stop  offset="1" style="stop-color:#5342D6"/>
		</linearGradient>
		<path class="st1" d="M226.8,89.9h567.5c78.1,0,142,63.9,142,142v567.5c0,78.1-63.9,142-142,142H226.8c-78.1,0-142-63.9-142-142
			V231.9C84.8,153.8,148.7,89.9,226.8,89.9L226.8,89.9z"/>
	</g>
	<g>
		<path class="st2" d="M708.7,515.7c0-109.5-88.7-198.2-198.2-198.2c-109.5,0-198.1,88.7-198.1,198.2
			c0,109.5,88.7,198.1,198.1,198.1C620,713.8,708.7,625.1,708.7,515.7L708.7,515.7z M705,290.6c-17.7,0-31.9,14.3-31.9,31.9
			c0,17.7,14.2,31.9,31.9,31.9c17.6,0,31.9-14.2,31.9-31.9C736.8,304.9,722.5,290.6,705,290.6L705,290.6z M348.6,244.8h324
			c60,0,108.9,49,108.9,108.9v324c0,60-48.9,108.9-108.9,108.9h-324c-59.9,0-108.9-48.9-108.9-108.9v-324
			C239.7,293.8,288.7,244.8,348.6,244.8L348.6,244.8z M672.5,208.4h-324c-79.9,0-145.2,65.4-145.2,145.2v324
			c0,80,65.4,145.2,145.2,145.2h324c80,0,145.2-65.2,145.2-145.2v-324C817.8,273.8,752.5,208.4,672.5,208.4L672.5,208.4z
			 M353.5,515.7c0-86.7,70.3-157,157-157s157,70.3,157,157c0,86.7-70.3,157-157,157S353.5,602.3,353.5,515.7L353.5,515.7z"/>
	</g>
</g>
</svg>
