<?xml version="1.0" encoding="utf-8"?>
<!-- Generator: Adobe Illustrator 26.2.1, SVG Export Plug-In . SVG Version: 6.00 Build 0)  -->
<svg version="1.1" id="Layer_1" xmlns="http://www.w3.org/2000/svg" xmlns:xlink="http://www.w3.org/1999/xlink" x="0px" y="0px"
	 viewBox="0 0 393 394" style="enable-background:new 0 0 393 394;" xml:space="preserve">
<style type="text/css">
	.st0{fill:#9E01CC;}
	.st1{fill:#1A2E35;}
	.st2{fill:#ED776A;}
	.st3{fill:#375A64;}
	.st4{fill:#ECECEC;}
	.st5{fill:#2B454E;}
	.st6{fill:#FFFFFF;}
	.st7{fill:none;}
	.st8{fill:#FFC800;}
	.st9{fill:#DCDCDC;}
	.st10{fill:#FF9CBF;}
</style>
<ellipse class="st0" cx="252.3" cy="205.2" rx="118.4" ry="117.9"/>
<path class="st0" d="M252.3,341.8c75.6,0,137.1-61.3,137.1-136.5S327.9,68.8,252.3,68.8s-137,61.2-137,136.5
	S176.8,341.8,252.3,341.8z M252.3,75.5c72,0,130.3,58.1,130.3,129.8s-58.4,129.8-130.3,129.8S122,277,122,205.3c0,0,0,0,0,0
	C122.1,133.6,180.4,75.5,252.3,75.5L252.3,75.5z"/>
<path class="st1" d="M274.6,220.9c-11.9,12.8-31.3,16.7-48,16.6c-17.1-0.1-36.1-3-50.9-11.9c-6.5-3.9-12.4-9.3-15.8-16.1
	c-3.7-7.3-3.7-14.7,1.3-20.9c4.1-5.1,12.3-8.3,12.6-13.1c0.4-4.8-3.3-8.9-4.1-13.7c-1.3-8.1,3.4-13.8,9.3-18.5
	c13.9-11.3,11.5-27.8,20.6-42.5c5.2-8.4,19.3-23.4,42-14.5c8.6,3.4,14.1,11.9,17.1,20.5c3.5,10.1-0.4,22.8,4.1,32.6
	c3.8,8.4,10.2,10.1,13.9,18.8c1.6,3.8,2.2,8.1-2.3,16.5c-1.6,3-3.5,7.7-2.4,11.5c1.4,5.3,7.3,8.1,9,13.6
	C283.2,207.4,279.8,215.3,274.6,220.9z"/>
<path class="st1" d="M164.9,211.9c-7.9-1.9-10.5-13.2-5.1-18.4c3.5-3.4,8.4-4.7,11.8-8c5.7-5.5,1.4-11.1-1.1-17
	c-5.3-12.9,3.7-20.7,13.2-27.8c7.2-5.4,9-12,10.1-20.6c0-0.1-0.2-0.2-0.2,0c-1.1,6.3-2.4,12.5-7.1,17.1c-3.9,3.8-8.8,6.2-12.6,10.1
	c-6.3,6.6-7.6,14.2-4.1,22.5c1,2.4,3.1,5.1,3.4,7.7c0.7,6-4,8.7-8.4,11.4c-3.4,2-7.1,4.2-8.7,8.1c-2.3,5.9,2.5,14.4,8.6,15.4
	C165.1,212.4,165.2,212,164.9,211.9z"/>
<path class="st1" d="M168.8,218.3c-4.7-3.3-9.8-6.4-12.3-11.8c-3.7-8,2-13.4,7.4-18.5c2.3-2.2,4.2-4.4,4.4-7.7
	c0.2-5-3.1-9.4-3.3-14.3c-0.6-11.8,11.4-18,17.8-26.2c6.5-8.3,9.2-18.4,12.1-28.4c0-0.1,0-0.2-0.1-0.2c-0.1,0-0.2,0-0.2,0.1
	c-3.8,12.7-8.5,24.6-18.3,33.9c-6.8,6.5-14.2,13.5-12,23.8c0.5,2.5,1.8,4.9,2.3,7.4c1,5-0.6,8.1-4.1,11.4c-3.5,3.2-7.2,6.3-8.1,11.1
	c-1.8,9.2,7,16,13.9,20.1c0.2,0.1,0.5,0.1,0.6-0.1C169.1,218.7,169,218.4,168.8,218.3z"/>
<path class="st1" d="M283.3,197c-3.5-6-9.5-9.3-7.2-17.2c1.6-5.5,5-9.7,4.3-15.6c-0.5-4.9-3.3-9-6.7-12.5
	c-4.3-4.4-9.2-8.2-12.1-13.7c-3.2-6.1-4.3-13-5.5-19.7c0-0.1-0.2-0.1-0.2,0c1,9.1,2.5,18.4,8.7,25.6c3.2,3.8,7.2,6.7,10.4,10.5
	c5.7,6.8,5.1,13.7,1.7,21.4c-1.5,3.5-3,7.1-1.6,10.9c1.3,3.8,4.6,6.4,6.8,9.7c9.3,14-8.1,29.3-21.5,30.5c-0.6,0.1-0.6,1,0,0.9
	c10-0.6,21.2-8.7,24.2-18.2C285.9,205.4,285.5,200.9,283.3,197z"/>
<path class="st1" d="M282.3,204c0.4-5.9-3-9.4-5.4-14.3c-3.8-7.6,1.4-14.4,2.6-22c0.9-5.3-0.9-10-3.8-14.2
	c-3.9-5.6-9.3-9.8-12.4-16.2c-3.2-6.7-4.4-14.3-3.4-21.7c0-0.1-0.2-0.1-0.2,0c-1.8,10.1,0.7,20.5,7,28.6c4,5.1,9.6,9.5,11.5,16.1
	c2,7-1.9,12.9-3.4,19.5c-1,4-0.3,8.1,1.8,11.6c1.6,2.7,3.5,5.1,4.3,8.3c1,4.2-0.3,8.7-2.3,12.5c-6.4,11.9-20,18.5-32.5,19.4
	c-0.4,0-0.5,0.7,0,0.7c11.4-0.7,22.1-5.9,29.7-14.5C279.1,214,281.9,209.2,282.3,204z"/>
<path class="st2" d="M234.1,195c-9.3,37.7-31.9,96.3-51.8,96c-18.2-0.3-58.8-32.4-75.8-42.9s21.1-52,30.9-45.3
	c15.1,10.4,37.7,29,41.5,27.8c4.8-1.5,10.8-13.2,38-47.6C228,168.9,238,179,234.1,195z"/>
<path class="st2" d="M119.1,186.8c-8-2.8-17-6.7-25.9-6.5s-16.3,11.9-16.3,15.2s3.4,24.3,12.2,24.3s3.5-16.1,3.9-17.9
	s0.7-4.2,2.4-4.1s31.1,14.1,31.1,14.1L119.1,186.8z"/>
<path class="st2" d="M118.5,188c-0.5,0-24.4-9.4-33.3-9.2S69,190.7,69,194s3.4,24.3,12.3,24.3s3.5-16.1,3.9-17.9
	c0.3-1.8,0.7-4.2,2.4-4.1s31.1,14.1,31.1,14.1L118.5,188z"/>
<path class="st1" d="M84.2,217.2c1.1-1.4,1.3-3.5,1.5-5.2c0.2-1.9,0.1-3.8-0.3-5.7c-0.5-1.6-0.9-3.2-1.1-4.9c0-1.6,0.4-3.3,1.2-4.7
	c0.7-1.2,2-0.8,3.1-0.4c1.7,0.6,3.3,1.4,4.8,2.2c1.7,0.8,3.4,1.7,5.1,2.6c1.8,0.8,3.5,1.8,5.2,2.8c0.1,0.1,0,0.3-0.1,0.2
	c-1.5-0.6-3-1.3-4.5-2c-1.7-0.8-3.4-1.6-5.1-2.3c-1.6-0.7-3.1-1.5-4.8-2.2c-0.6-0.2-1.7-0.9-2.3-0.7s-1,1.8-1.2,2.4
	c-0.4,1.6-0.3,3.3,0.3,4.8c0.5,1.6,0.8,3.2,0.9,4.9c0.1,1.6,0,3.1-0.4,4.6c-0.5,1.4-1.3,2.6-2.1,3.8
	C84.4,217.5,84.1,217.4,84.2,217.2z"/>
<path class="st2" d="M146.8,211.3c0,0-24.7-22.4-29.8-26.9c-10.3-8.9-53.7-26.6-59.8-27.2c-6.1-0.6-8.2,11.7,21.2,24.6
	c15.5,6.8,18.3,15.6,18,20.5c-0.3,4.9-5,14.1-13.3,13.8c-8.3-0.2-13.7-12.3-21.3-13.6c-7.6-1.3-2.6,12.5,2.8,20.6
	s15.1,14.7,22.3,17.3c7.2,2.7,29.4,12.2,29.4,12.2L146.8,211.3z"/>
<path class="st1" d="M72.9,210.3c3.1,2.4,6.7,5.5,10.8,5.7c4.1,0.2,7-2.6,9-6s3.1-7.4,2.2-11.4c-1-3.6-2.9-6.8-5.7-9.3
	c-3.4-3-7.1-5.5-11.2-7.4c-0.2-0.1,0-0.4,0.2-0.3c3.8,1.7,15.7,6.5,18.1,17c1,4.3-0.3,8.1-2.3,11.6c-1.8,3.3-4.5,6.5-8.5,6.8
	c-4.9,0.4-9.2-3.6-12.6-6.5C72.4,210.3,72.7,210.2,72.9,210.3z"/>
<path class="st3" d="M146.8,208.2l-36.9,57.1c0,0,58.6,32.7,75.1,27.4s41.6-52.6,51.9-94.1c10.3-41.5-15.3-25.6-25.2-12.8
	c-9.9,12.8-31.5,42.5-32.7,42.1C177.8,227.5,146.8,208.2,146.8,208.2z"/>
<path class="st4" d="M126.7,274c3.6,1.8,7.6,3.8,11.8,5.7l32-56.9c-3.4-2-7.3-4.5-11-6.8C149.4,233.8,137.1,255.5,126.7,274z"/>
<path class="st4" d="M143.1,281.8c1.3,0.6,2.6,1.1,3.9,1.7l31.6-55.9c-0.7-0.4-1.9-1.1-3.5-2C165,243,153.2,263.8,143.1,281.8z"/>
<path class="st1" d="M151.1,285.2c13.3,5.4,26.5,9.4,33.3,7.7c0.2,0,0.4-0.1,0.6-0.2c16.6-5.3,41.6-52.6,51.9-94.1
	c1.8-7.4,2.5-13,2.4-17.1c0-0.2,0-0.4,0-0.6s0-0.7-0.1-1c0-0.1,0-0.3-0.1-0.4c0-0.3-0.1-0.6-0.1-0.9L151.1,285.2z"/>
<path class="st1" d="M130.5,259.7c1.2-2,2.4-4.1,3.5-6.1c2.4-4.1,16.7-27.9,22.3-35.2c0.2-0.2,0.4,0,0.3,0.2
	c-3.9,8.4-18.8,31.8-21.2,35.7c-1.3,2-2.5,4-3.8,5.9c-1.3,2-2.8,3.8-4.1,5.8c-0.1,0.2-0.4,0.1-0.3-0.2
	C128.4,263.8,129.3,261.7,130.5,259.7z"/>
<path class="st3" d="M194.8,262.6l-6.2,42.1c37.6,23.9,85.4,24.7,123.8,2.2c-6.2-32.1-21.2-94.3-48.7-125.8
	c-4.6-5.3-20.1-19.5-39.7-3.2c-9.6,7.9-32.5,41.6-35.4,55.5C185.7,247.1,194.8,262.6,194.8,262.6z"/>
<path class="st1" d="M213,259.3c6.8,0.2,13.5,1.3,20,3.3c6.5,1.8,20.9,7.5,24.5,8.9c0,0,0.1,0,0.1,0.1s0,0.1-0.1,0.1
	c-4.7-1.1-9.3-2.5-13.9-4.2c-6.4-2.2-12.8-4.1-19.3-5.8c-3.7-0.9-7.4-1.6-11.2-2c-0.1,0-0.2-0.1-0.2-0.2
	C212.9,259.4,212.9,259.4,213,259.3z"/>
<path class="st1" d="M201.1,262.7c7-0.6,14.1,0.1,21,1.9c0.1,0,0.1,0.2,0,0.2c-3.5-0.4-6.9-0.8-10.4-1.1s-7-0.5-10.5-0.7
	C201,262.9,201,262.8,201.1,262.7z"/>
<path class="st1" d="M193.9,218.9c0.9-3.4,2.2-6.7,3.9-9.9c0-0.1,0.1,0,0.1,0c-1.3,2.8-2.4,5.7-3.3,8.6c2.4-4.3,5.1-8.4,8.1-12.3
	c0,0,0.1,0,0.1,0.1c-8.2,13.6-16.4,29.3-12.5,45.6c0.5,2,1.1,4,1.9,5.9c0.8,2,1.8,4,3.1,5.8c0.1,0.1-0.4,0.7-0.5,0.5
	c-1.2-1.4-2.2-3-3.1-4.7c-1-1.7-1.8-3.4-2.4-5.3c-1.2-3.7-1.8-7.6-1.7-11.5C187.5,233.8,190.1,226,193.9,218.9z"/>
<path class="st2" d="M269,212.9c-6.6,38.4-39,110.4-60.1,117.1c-24.4,7.8-109.3-19.2-126-31.3c-6.6-4.8,28.7-47.4,36.9-44.4
	c34.6,12.7,65.1,19.2,69.6,16.1c6.8-4.6,34.7-44.4,52.8-69.1C265.2,170.3,272,195.6,269,212.9z"/>
<path class="st2" d="M85.2,299.8c-3.8-1.3-29.8-20.1-37.4-28.9c-8.3-9.1-15-19.6-20-30.9c-7.7-17.9-11.3-31-9.5-36.8
	c2.2-6.8,2.8-7.9,20.7,21.8c10.2,16.8,19.9,18.7,28.3,18.5c34.5-0.6,59.7,13.3,59.7,13.3S99.7,305,85.2,299.8z"/>
<path class="st5" d="M5.4,180.9l44.9,56.4c1.3,1.6,3.4,2.3,5.4,1.8L87,228.8c1.8-0.6,2.2-2.3,0.9-3.9L43,168.5
	c-1.3-1.6-3.4-2.3-5.4-1.8L6.3,177.1C4.6,177.7,4.1,179.4,5.4,180.9z"/>
<path class="st1" d="M9.1,176.1l31.3-10.4c2-0.5,4.1,0.2,5.4,1.8L90.7,224c1.2,1.6,0.8,3.3-0.9,3.9l-31.3,10.4
	c-2,0.5-4.1-0.2-5.4-1.8L8.2,180C6.9,178.5,7.4,176.7,9.1,176.1z M53.7,234c1.2,1.5,3.1,2.2,5,1.7l28-9.3c1.6-0.5,1.9-2.1,0.7-3.6
	l-41.8-52.5c-2.4-3-3.8-2.8-5.4-2.2l-5.6,1.9c-0.3,0.1-0.3,0.5,0,0.9l0.1,0.2c0.8,0.9,0.2,1.1-0.6,1.4l-13,4.3
	c-0.7,0.4-1.6,0.2-2-0.5l-0.1-0.2c-0.3-0.4-0.7-0.6-1.2-0.5l-5.6,1.9c-1.6,0.5-2.5,1.3-0.3,4.1L53.7,234z"/>
<path class="st6" d="M24.9,174l3.5-1.2c0.1,0,0.1-0.2,0.1-0.3l0,0c-0.1-0.1-0.2-0.1-0.4-0.1l-3.5,1.2c-0.1,0-0.1,0.1-0.1,0.2
	c0,0,0,0.1,0,0.1l0,0C24.7,174,24.8,174,24.9,174z"/>
<line class="st7" x1="84.7" y1="219.5" x2="84.8" y2="219.5"/>
<path class="st6" d="M11.9,181.5L53.7,234c1.2,1.5,3.1,2.2,5,1.7l28-9.3c1.6-0.5,1.9-2.1,0.7-3.6l-41.8-52.5c-2.4-3-3.8-2.7-5.4-2.2
	l-5.6,1.9c-0.3,0.1-0.3,0.5,0,0.9l0.1,0.2c0.8,0.9,0.2,1.1-0.6,1.4l-13,4.3c-0.7,0.4-1.6,0.2-2-0.5l-0.1-0.2
	c-0.3-0.4-0.7-0.6-1.2-0.5l-5.6,1.9C10.6,177.9,9.7,178.7,11.9,181.5z"/>
<path class="st8" d="M11.9,181.5l3.1,3.9l33.7-11.2l-3.1-3.9c-2.4-3-3.8-2.8-5.4-2.2l-5.6,1.9c-0.3,0.1-0.3,0.5,0,0.9l0.1,0.2
	c0.8,0.9,0.2,1.1-0.6,1.4l-13,4.3c-0.7,0.4-1.6,0.2-2-0.5l-0.1-0.2c-0.3-0.4-0.7-0.6-1.2-0.5l-5.6,1.9
	C10.6,177.9,9.7,178.7,11.9,181.5z"/>
<polygon class="st6" points="43.7,173.5 44.1,172.3 42.4,171.8 42.4,172 43.7,172.4 43.5,173.4 "/>
<path class="st6" d="M15,181.6c0.1,0.1,0.2,0.1,0.3,0.1c0.1,0,0.1-0.1,0.1-0.2c0,0,0-0.1,0-0.1c-0.1-0.1-0.2-0.1-0.3-0.1
	C14.9,181.4,14.8,181.5,15,181.6z"/>
<path class="st6" d="M15.4,182.2c0.1,0.1,0.2,0.1,0.3,0.1c0.1,0,0.1-0.1,0.1-0.2c0,0,0,0,0-0.1c-0.1-0.1-0.2-0.1-0.3-0.1
	C15.4,181.9,15.4,182,15.4,182.2C15.4,182.1,15.4,182.1,15.4,182.2z"/>
<path class="st6" d="M15.9,182.8c0.1,0.1,0.2,0.1,0.3,0.1c0.1,0,0.1-0.1,0.1-0.2c0,0,0-0.1,0-0.1c-0.1-0.1-0.2-0.1-0.3-0.1
	C15.9,182.6,15.9,182.6,15.9,182.8C15.9,182.7,15.9,182.8,15.9,182.8z"/>
<g id="u5Zjqx">
	<path class="st6" d="M36.5,170.8L36.5,170.8L36.5,170.8c0.1-0.2,0.3-0.3,0.5-0.4c0.2-0.1,0.5-0.1,0.7,0v0l0,0h-0.1h-0.2H37h-0.1
		h-0.1h-0.1l-0.2,0.1c0,0-0.1,0.1-0.1,0.1C36.5,170.7,36.4,170.7,36.5,170.8C36.4,170.8,36.4,170.8,36.5,170.8L36.5,170.8z"/>
	<path class="st6" d="M37.6,170.7v-0.1c-0.2,0-0.3,0-0.5,0c-0.2,0-0.3,0.1-0.4,0.3h0.1c0-0.1,0.1-0.2,0.2-0.2
		C37.3,170.7,37.5,170.7,37.6,170.7z"/>
	<path class="st6" d="M37.1,171h0.1c0-0.1,0.1-0.1,0.1-0.1c0.1,0,0.2,0,0.2,0v-0.1C37.4,170.8,37.1,170.8,37.1,171z"/>
	<path class="st6" d="M37.4,171.1c0,0,0.1,0,0.1,0c0,0,0.1,0,0-0.1C37.5,171,37.4,171,37.4,171.1C37.4,171,37.3,171.1,37.4,171.1z"
		/>
</g>
<path class="st6" d="M41.9,169.2c-0.1-0.1-0.2-0.2-0.4-0.1c-0.1,0-0.1,0.1-0.1,0.2c0,0,0,0.1,0,0.1c0.1,0.1,0.2,0.2,0.4,0.1
	C41.9,169.5,42,169.4,41.9,169.2C41.9,169.3,41.9,169.2,41.9,169.2z"/>
<path class="st6" d="M41.2,169.4c-0.1-0.1-0.2-0.2-0.4-0.1c-0.1,0-0.1,0.1-0.1,0.2c0,0,0,0.1,0,0.1c0.1,0.1,0.2,0.2,0.4,0.1
	C41.2,169.7,41.3,169.6,41.2,169.4C41.2,169.5,41.2,169.5,41.2,169.4z"/>
<path class="st6" d="M40.5,169.7c-0.1-0.1-0.2-0.2-0.4-0.1c-0.1,0-0.1,0.1-0.1,0.2c0,0,0,0.1,0,0.1c0.1,0.1,0.2,0.2,0.4,0.1
	C40.5,169.9,40.5,169.8,40.5,169.7C40.5,169.7,40.5,169.7,40.5,169.7z"/>
<path class="st6" d="M39.8,169.9c-0.1-0.1-0.2-0.2-0.4-0.1c-0.1,0-0.1,0.1-0.1,0.2c0,0,0,0.1,0,0.1c0.1,0.1,0.2,0.2,0.4,0.1
	C39.8,170.2,39.8,170.1,39.8,169.9C39.8,170,39.8,169.9,39.8,169.9z"/>
<path class="st6" d="M39.1,170.2c-0.1-0.1-0.2-0.2-0.4-0.1c-0.1,0-0.1,0.1-0.1,0.2c0,0,0,0.1,0,0.1c0.1,0.1,0.2,0.2,0.4,0.1
	C39.1,170.4,39.1,170.3,39.1,170.2C39.1,170.2,39.1,170.2,39.1,170.2z"/>
<polygon class="st6" points="13.1,179.7 15.7,178.8 14.6,177.5 12.1,178.3 "/>
<polygon class="st6" points="13.3,178.5 14.4,178.1 14.8,178.6 13.7,179 "/>
<polygon class="st6" points="13,179.1 13.1,179.1 12.8,178.7 12.7,178.7 "/>
<polygon class="st4" points="81.8,224 82.1,224 82.9,225 83.4,224.8 82.9,224.3 83.8,224 84.2,224.5 84.7,224.4 83.9,223.4 
	84.1,223.3 82.1,222.6 "/>
<polygon class="st4" points="55.5,231.9 58.3,231 58,230.6 55.2,231.5 "/>
<polygon class="st4" points="56.2,232.7 59,231.8 58.7,231.5 55.9,232.4 "/>
<polygon class="st4" points="56.9,233.6 59.7,232.7 59.4,232.3 56.6,233.3 "/>
<polygon class="st4" points="69.2,228 70.6,228.5 70.8,227.5 70.5,227.4 70.4,228.3 69.2,227.9 "/>
<path class="st4" d="M70.6,230.1c0.3,0,0.6,0,0.8-0.1c0.6-0.2,1-0.6,1.2-1.2c0.2-0.6,0-1.3-0.4-1.8c-0.8-0.9-2-1.3-3.2-1
	c-0.6,0.2-1,0.6-1.2,1.2c-0.2,0.6,0,1.3,0.4,1.8l0,0C68.8,229.7,69.6,230.1,70.6,230.1z M69.8,227.6c0.4,0,0.8,0.2,1,0.5
	c0.1,0.1,0.1,0.2,0.1,0.2c-0.5,0.2-1.1,0-1.5-0.4c-0.1-0.1-0.1-0.2-0.1-0.2C69.5,227.6,69.6,227.6,69.8,227.6z"/>
<path class="st6" d="M32.9,176.4c-0.4-0.4-1-0.6-1.5-0.5c-0.2,0-0.4,0.2-0.4,0.4c0,0.1,0,0.1,0.1,0.2c0.1,0.1,0.2,0.1,0.2,0
	c0.1-0.1,0.2-0.2,0.3-0.3c0.2-0.1,0.4-0.1,0.6,0c0.2,0.1,0.3,0.2,0.5,0.3c0.1,0.1,0.1,0.3,0.1,0.4c0,0.1-0.2,0.3-0.3,0.3
	c-0.2,0-0.3,0-0.5,0c-0.1,0-0.2,0-0.2,0.1c0,0.1,0.1,0.2,0.2,0.2c0.2,0.1,0.5,0.1,0.7,0c0.3-0.1,0.6-0.4,0.5-0.7
	C33.1,176.6,33,176.5,32.9,176.4z"/>
<path class="st6" d="M31.5,177.7l-1-1.3c-0.1-0.1-0.1-0.1-0.2-0.1c0,0-0.1,0.1,0,0.1c0,0,0,0,0,0l0.4,0.5l-0.6,0.2l-0.4-0.5
	c-0.1-0.1-0.1-0.1-0.2-0.1c0,0-0.1,0.1,0,0.1c0,0,0,0,0,0l1,1.3c0.1,0.1,0.1,0.1,0.2,0.1c0.1,0,0.1-0.1,0-0.2l-0.4-0.5l0.6-0.2
	l0.4,0.5c0.1,0.1,0.1,0.1,0.2,0.1C31.5,177.8,31.5,177.8,31.5,177.7z"/>
<path class="st6" d="M28.8,178.3l0.6-0.2l0.3,0.2c0.1,0,0.1,0,0.2,0l0,0c0.1-0.1,0-0.1,0-0.2l-1.6-1.1c-0.1,0-0.1,0-0.2,0
	c0,0-0.1,0.1-0.1,0.1c0,0,0,0,0,0l0.5,1.5c0,0.1,0.1,0.1,0.2,0.1h0.1c0.1,0,0.1-0.1,0.1-0.1L28.8,178.3z M28.7,178l-0.2-0.5l0.6,0.4
	L28.7,178z"/>
<path class="st6" d="M26.5,177.9l0.4-0.1l0.9,1.2c0.1,0.1,0.1,0.1,0.2,0.1c0.1,0,0.1-0.1,0.1-0.2l-0.9-1.2l0.4-0.1
	c0.1,0,0.1-0.1,0-0.2c-0.1-0.1-0.1-0.1-0.2-0.1l-1,0.4c0,0-0.1,0.1,0,0.1c0,0,0,0,0,0C26.4,177.8,26.5,177.9,26.5,177.9z"/>
<polygon class="st3" points="62.4,197.4 38.3,205.4 33.1,198.8 57.2,190.8 57.2,190.8 62.4,197.4 "/>
<polygon class="st3" points="36.1,206.1 38.3,205.4 36.7,203.4 "/>
<polygon class="st6" points="35.5,199.6 56.8,192.5 56.7,192.4 35.4,199.5 "/>
<polygon class="st6" points="40.4,198.8 57.3,193.2 57.2,193.1 40.3,198.7 "/>
<polygon class="st6" points="38.8,201 58.4,194.6 58.3,194.4 38.7,200.9 "/>
<polygon class="st6" points="37.6,202.3 59,195.2 58.9,195.1 37.5,202.2 "/>
<polygon class="st6" points="38.2,203 59.5,195.9 59.4,195.8 38.1,202.9 "/>
<polygon class="st6" points="44.6,201.7 60,196.6 59.9,196.5 44.5,201.6 "/>
<polygon class="st3" points="74.9,213 50.8,221 45.5,214.4 69.6,206.4 69.6,206.4 74.9,213 "/>
<polygon class="st3" points="48.6,221.8 50.8,221 49.2,219 "/>
<polygon class="st6" points="47.9,215.2 69.2,208.2 69.1,208 47.8,215.1 "/>
<polygon class="st6" points="52.9,214.4 69.8,208.8 69.7,208.7 52.8,214.3 "/>
<polygon class="st6" points="51.3,216.7 70.9,210.2 70.8,210.1 51.2,216.5 "/>
<polygon class="st6" points="50.1,217.9 71.4,210.9 71.3,210.8 50,217.8 "/>
<polygon class="st6" points="50.6,218.6 71.9,211.6 71.8,211.4 50.5,218.5 "/>
<polygon class="st6" points="57.1,217.3 72.5,212.2 72.4,212.1 57,217.2 "/>
<polygon class="st8" points="25.6,192.9 49.7,185 45.3,179.4 21.2,187.4 "/>
<polygon class="st8" points="51.9,184.2 49.7,185 48.1,182.9 "/>
<polygon class="st6" points="27,186.9 44.8,181 44.7,180.9 26.9,186.8 "/>
<polygon class="st6" points="24,188.7 45.3,181.7 45.2,181.5 23.9,188.6 "/>
<polygon class="st6" points="24.5,189.4 45.9,182.4 45.8,182.2 24.4,189.3 "/>
<polygon class="st6" points="26.8,189.5 46.4,183 46.3,182.9 26.7,189.4 "/>
<polygon class="st6" points="25.6,190.8 46.9,183.7 46.8,183.6 25.5,190.7 "/>
<polygon class="st6" points="31.7,189.6 47.5,184.4 47.4,184.3 31.6,189.5 "/>
<polygon class="st8" points="29.6,198 53.7,190 50.4,185.9 26.3,193.8 "/>
<polygon class="st8" points="56,189.3 53.7,190 52.1,188 "/>
<polygon class="st6" points="28.7,194.5 49.9,187.5 49.8,187.4 28.6,194.4 "/>
<polygon class="st6" points="33,194 50.5,188.2 50.4,188 32.9,193.8 "/>
<polygon class="st6" points="31.7,195.2 51,188.8 50.9,188.7 31.6,195.1 "/>
<polygon class="st6" points="36.7,194.5 51.6,189.5 51.5,189.4 36.6,194.3 "/>
<polygon class="st9" points="42,213.6 66.1,205.6 61.5,199.8 37.4,207.8 "/>
<polygon class="st9" points="68.4,204.9 66.1,205.6 64.5,203.6 "/>
<polygon class="st6" points="42.5,210.1 62.6,203.4 62.5,203.3 42.4,210 "/>
<polygon class="st6" points="44.7,210.2 63.2,204.1 63.1,204 44.6,210.1 "/>
<polygon class="st6" points="42.5,208.3 61.5,202.1 61.4,201.9 42.5,208.2 "/>
<polygon class="st6" points="39.9,208.3 61,201.4 60.9,201.3 39.8,208.2 "/>
<polygon class="st6" points="44.5,211.1 63.7,204.8 63.6,204.6 44.4,211 "/>
<polygon class="st8" points="53.8,228.3 77.9,220.4 74,215.5 49.9,223.5 "/>
<polygon class="st8" points="80.1,219.6 77.9,220.4 76.3,218.3 "/>
<polygon class="st6" points="52.2,224.2 73.5,217.1 73.4,217 52.1,224 "/>
<polygon class="st6" points="52.7,224.8 74,217.8 73.9,217.6 52.6,224.7 "/>
<polygon class="st6" points="54.9,225 74.6,218.4 74.5,218.3 54.8,224.8 "/>
<polygon class="st6" points="53.8,226.2 75.1,219.1 75,219 53.7,226.1 "/>
<polygon class="st6" points="59.9,225 75.7,219.8 75.6,219.7 59.8,224.9 "/>
<path class="st2" d="M63.1,243.3c8.7,0.1-19.5-17.4-20-27.3c-0.4-9.8,9.2-6.8,16.8-1.2c26.4,19.3,46.2,18.3,59.6,36.8
	S63.1,243.3,63.1,243.3z"/>
<path class="st1" d="M89.3,231.3c5.7,1.4,11.1,3.6,16.2,6.3c4.7,2.7,8.4,6.7,11.7,10.9c0.1,0.2-0.1,0.4-0.3,0.2
	c-7.1-8.7-17.7-13.1-27.8-17.3c-0.1,0-0.1-0.1,0-0.2C89.2,231.3,89.3,231.3,89.3,231.3z"/>
<path class="st3" d="M187.7,268.1c-6.8,1.8-53.8-11-53.8-11l-26.5,63.7c0,0,81.9,19,101,12.4c19.1-6.6,48.9-71.3,58.5-108.9
	c9.1-35.3-3.1-58.4-28.3-21.8C238.7,202.4,191.2,267.1,187.7,268.1z"/>
<path class="st4" d="M122.4,323.9c5.3,1.1,11.6,2.4,18.4,3.6l24.1-62.8c-6.2-1.4-12.6-2.9-18-4.3
	C139.6,279.6,130.6,302.8,122.4,323.9z"/>
<path class="st4" d="M148,328.9c2,0.4,3.9,0.7,5.9,1l24-62.5c-1.8-0.3-3.7-0.7-5.8-1C164.9,285.1,156.1,307.9,148,328.9z"/>
<path class="st1" d="M209.5,331.1c16-8.2,35.8-50.9,39.6-59.3c2.4-5.4,4.7-10.8,6.8-16.3c4.4-11,8.4-22.1,12.2-33.2
	c0-0.1,0.1-0.1,0.2-0.1c0.1,0,0.1,0.1,0.1,0.2c-2.1,8.6-4.6,17.2-7.6,25.5c1.9-3.1,3.7-6.4,5.2-9.7c0.1-0.2,0.3,0,0.3,0.1
	c-1.6,4-3.6,7.8-6.1,11.2c-3,8.4-6.4,16.7-10.2,24.8c-1.1,2.3-23.9,54.7-41.9,59.6c-6.2,1.7-27.5,0.2-32-0.9c-0.2-0.1-0.2-0.3,0-0.3
	C182.3,332.6,203.8,334,209.5,331.1z"/>
<path class="st1" d="M125.2,313c0.8-2.2,1.6-4.4,2.4-6.6c1.6-4.4,11.5-30.4,15.8-38.5c0.1-0.2,0.4-0.1,0.4,0.2
	c-2.4,8.9-12.9,34.6-14.6,38.8c-0.9,2.2-1.8,4.3-2.7,6.5c-0.9,2.1-2.1,4.2-3.1,6.4c-0.1,0.2-0.4,0.1-0.4-0.1
	C123.9,317.4,124.4,315.2,125.2,313z"/>
<path class="st1" d="M133.9,257.1c3.9,0.2,39.1,8.3,46.9,10.1c1.8,0.4,3.8,1.1,5.8,0.8s3.3-2,4.6-3.4c2.5-2.9,30.1-39.1,32.1-40.9
	c0.8-0.7,1.4-0.8,0.6,0.3c-1.2,2-28,37.7-30.4,40.5c-2.3,2.6-4.4,5.4-8.1,5.2c-1.7-0.1-49.2-10.7-51.5-11.6
	C133.2,257.9,133.3,257.1,133.9,257.1z"/>
<path class="st2" d="M246.1,175.9c-0.1,2.4-8.4,18.9-18.8,20.2c-3.4,0.4-6.5-18-6.5-18l-0.5-1.3l-7.6-18.2l19.9-18.2l2.9-2.5
	c0,0,1.8,5.1,3.9,11.6c0.1,0.3,0.2,0.6,0.3,0.9s0.3,0.7,0.4,1c0.3,1,0.7,1.9,1,2.9c0.2,0.7,0.5,1.5,0.7,2.3c0.2,0.8,0.5,1.6,0.7,2.4
	C244.5,166.7,246.1,174.9,246.1,175.9z"/>
<path class="st1" d="M239.3,149.4c-2,11.5-9,21.5-19.1,27.4l-7.6-18.2l19.9-18.2l2.9-2.5C235.4,137.9,237.2,143,239.3,149.4z"/>
<path class="st2" d="M180.8,129.5c-0.4,34.7,20.4,38.9,27.9,39c6.8,0.1,30.1-0.5,34.1-35c4-34.5-12-45.6-27.6-46.6
	S181.3,94.8,180.8,129.5z"/>
<path class="st1" d="M186.3,122.4c0.8-0.2,1.6-0.4,2.3-0.6c0.8-0.1,1.6-0.5,2.2-1.1c0.3-0.5,0.3-1.1-0.1-1.5c-0.8-0.7-2-0.9-3.1-0.5
	c-1.1,0.2-2.1,0.8-2.7,1.8c-0.4,0.6-0.2,1.4,0.4,1.8C185.7,122.4,186,122.5,186.3,122.4z"/>
<path class="st1" d="M209.6,122.2c-0.8-0.1-1.6-0.2-2.4-0.4c-0.9,0-1.7-0.3-2.4-0.8c-0.4-0.4-0.4-1-0.1-1.5c0.8-0.8,1.9-1.2,3-0.9
	c1.1,0.1,2.2,0.6,2.9,1.4c0.5,0.6,0.4,1.4-0.1,1.9C210.3,122.1,210,122.2,209.6,122.2z"/>
<path class="st1" d="M205.4,130.7c0-0.1,0.2,0.1,0.2,0.2c0,2.4,0.4,5.1,2.6,5.8c0.1,0,0.1,0.1,0,0.1
	C205.5,136.6,205,133,205.4,130.7z"/>
<path class="st1" d="M207.4,128.2c3.8-0.4,4.4,7.2,0.8,7.6S204.2,128.5,207.4,128.2z"/>
<path class="st1" d="M209,128.5c0.7,0.4,1.4,1.1,2.2,1.1c0.8,0,1.6-0.8,2.1-1.6c0.1-0.1,0.1,0,0.1,0.1c0.1,1.5-0.3,3-1.9,3.3
	c-1.6,0.3-2.5-0.9-3.1-2.4C208.5,128.7,208.7,128.3,209,128.5z"/>
<path class="st1" d="M191.4,130.8c0-0.1-0.2,0.1-0.2,0.2c0.3,2.3,0.2,5.1-1.9,6.1c0,0-0.1,0.1,0,0.1c0,0,0,0,0,0
	C191.9,136.6,192.1,133,191.4,130.8z"/>
<path class="st1" d="M189.1,128.5c-3.8,0-3.5,7.6,0,7.6C192.6,136.1,192.3,128.5,189.1,128.5z"/>
<path class="st1" d="M187.5,129.1c-0.6,0.4-1.2,1.2-1.9,1.3c-0.7,0.1-1.5-0.7-2-1.5c-0.1-0.1-0.1,0-0.1,0.1c0,1.5,0.6,2.9,2,3.2
	c1.4,0.2,2.2-1.1,2.5-2.6C188,129.3,187.8,128.9,187.5,129.1z"/>
<path class="st1" d="M206.5,149.2c-0.5,0.6-1,1.4-1.8,1.6c-0.9,0.1-1.8,0-2.6-0.3c0,0-0.1,0-0.1,0.1c0,0,0,0.1,0,0.1
	c0.8,0.9,2,1.2,3.1,0.9c1-0.4,1.6-1.3,1.6-2.3C206.8,149.2,206.6,149.1,206.5,149.2z"/>
<path class="st1" d="M196.1,141.3c0,0-0.3,3.5-0.2,5.2c0,0.2,0.4,0.2,1,0.2c0,0,0,0,0.1,0c3,0.3,5.9-1,7.5-3.4
	c0.1-0.2-0.1-0.3-0.3-0.2c-2,1.6-4.5,2.5-7.1,2.5c-0.2-0.5,0.7-6.1,0.4-6.1c-1.3,0.2-2.5,0.6-3.7,1.1c0.3-7.4,1.9-14.7,2.1-22.1
	c0-0.1-0.1-0.2-0.2-0.2c-0.1,0-0.2,0.1-0.2,0.1c-2.2,7.5-2.7,16.1-3.3,23.7C192.1,143.1,195.4,141.6,196.1,141.3z"/>
<path class="st1" d="M197,146c1.1,1.3,2.4,2.3,4,2.9c0.9,0.3,1.8,0.3,2.7,0.1c1.9-0.6,1.9-2.3,1.5-3.8c-0.2-0.8-0.5-1.6-0.9-2.3
	C202.2,144.7,199.7,145.8,197,146z"/>
<path class="st10" d="M201.1,148.9c0.9,0.3,1.8,0.3,2.7,0.1c1.9-0.6,1.9-2.3,1.5-3.8C203.1,145.5,201.2,146.9,201.1,148.9z"/>
<path class="st1" d="M243.6,132.1c-5.8,1.1-8.4-11-8.4-11s-11.8,1.3-17.6-15.3c0,0,1.1,7.9,6.7,13.5c0,0-21.1,0-31.8-16.5
	c0,0,4.5,8.5,8.1,11.3c0,0-9-1.5-14.1-8.1c0,0-2.6,10.4-5.1,13.5c0,0-3.1-36.5,31.3-36.2c0,0,21.4-0.9,30.8,15.1
	C252.9,114.3,243.6,132.1,243.6,132.1z"/>
<path class="st2" d="M238.3,133.9c0,0,6.8-11.4,11.9-9s0.6,18.4-5,21c-2.8,1.6-6.4,0.5-8-2.3c0-0.1-0.1-0.2-0.1-0.3L238.3,133.9z"/>
<path class="st1" d="M248.8,129.4c0,0,0.1,0.1,0,0.1c0,0,0,0,0,0c-3.9,1.9-5.8,5.8-7,9.8c1.1-1.6,2.7-2.5,4.8-1.2
	c0.1,0.1,0,0.2-0.1,0.2c-1.5-0.3-3.1,0.3-3.9,1.6c-0.7,1.1-1.2,2.2-1.7,3.3c-0.2,0.4-0.8,0.2-0.7-0.2V143
	C239.8,137.9,243.3,130.4,248.8,129.4z"/>
</svg>
